<svg width="98" height="98" viewBox="0 0 98 98" fill="none" xmlns="http://www.w3.org/2000/svg">
<g clip-path="url(#clip0_441_339)">
<path d="M72.8108 57.0341C72.8108 39.4853 58.6221 25.2592 41.1196 25.2592C23.6172 25.2592 9.4292 39.4853 9.4292 57.0341C9.4292 74.5829 23.6172 88.809 41.1196 88.809C58.6221 88.809 72.8108 74.5829 72.8108 57.0341Z" fill="#97C9E8"/>
<path d="M41.1196 25.2592C39.4934 25.2592 37.8956 25.3825 36.3345 25.6195C51.5662 27.9329 63.2397 41.116 63.2397 57.0341C63.2397 72.9514 51.5662 86.1353 36.3345 88.4486C37.8956 88.6856 39.4934 88.809 41.1196 88.809C58.6221 88.809 72.8108 74.5829 72.8108 57.0341C72.8108 39.4853 58.6221 25.2592 41.1196 25.2592Z" fill="#60B6FF"/>
<path d="M37.0009 37.6061C32.1193 40.6649 28.4579 45.5599 31.2041 51.0666C33.9496 56.5733 40.0522 54.4319 45.6971 53.667C51.3414 52.9022 47.0699 70.3396 50.4262 74.623C53.7826 78.9057 63.2407 70.3396 62.3255 64.8329C60.9707 56.6802 60.4952 53.8196 71.4794 48.0071L71.5093 47.9966C67.8068 35.4595 56.5998 26.1576 43.1049 25.321L43.1034 25.3688C43.1034 25.3688 41.8832 34.5466 37.0009 37.6061Z" fill="#BAEB6C"/>
<path d="M60.9756 32.2682C60.9771 32.2697 60.9793 32.2712 60.9816 32.2727C60.9793 32.2712 60.9778 32.2697 60.9756 32.2682Z" fill="#BAEB6C"/>
<path d="M20.0672 71.4099C18.601 69.1744 22.6601 63.9152 23.5761 59.9383C24.4912 55.9614 18.9988 56.2672 17.321 54.8907C15.6424 53.5135 13.3545 47.5485 11.676 46.172L11.4076 45.9597C10.129 49.408 9.4292 53.1374 9.4292 57.0321C9.4292 67.5347 14.5119 76.8456 22.3454 82.6311L22.3551 81.9649C22.3551 81.9649 23.5761 76.7641 20.0672 71.4099Z" fill="#BAEB6C"/>
<path d="M62.3251 64.8324C62.3184 64.7928 62.3117 64.7539 62.3057 64.7136C61.6986 67.1637 60.8088 69.501 59.6724 71.6887C61.4758 69.5615 62.6803 66.9671 62.3251 64.8324Z" fill="#BAEB6C"/>
<path d="M43.1044 25.3217L43.1029 25.3695C43.1029 25.3695 43.0005 26.1359 42.7388 27.2978C53.8515 31.5042 61.9878 41.7916 63.1071 54.1141C64.5075 52.1985 67.069 50.3413 71.4789 48.0078L71.5088 47.9973C67.8055 35.4602 56.5985 26.1583 43.1044 25.3217Z" fill="#96D629"/>
<path d="M32.362 36.1631C17.0361 33.5626 7.5293 14.2673 7.5293 14.2673C7.5293 14.2673 22.8695 -0.8127 38.1947 1.78698C53.5199 4.38742 63.0266 23.6828 63.0266 23.6828C63.0266 23.6828 47.6865 38.7628 32.362 36.1631Z" fill="#49CB5C"/>
<path d="M38.1943 1.78845C35.2679 1.29199 32.3422 1.44152 29.522 2.00602C44.2057 5.30329 53.2646 23.6835 53.2646 23.6835C53.2646 23.6835 43.2225 33.5529 31.2715 35.9455C31.6319 36.027 31.9946 36.101 32.3617 36.1638C47.6861 38.7635 63.0263 23.6835 63.0263 23.6835C63.0263 23.6835 53.5195 4.38813 38.1943 1.78845Z" fill="#07B128"/>
<path d="M73.4499 17.4344C77.5614 7.70637 91.8055 4.43079 91.8055 4.43079C91.8055 4.43079 99.3847 16.9283 95.274 26.6563C91.1632 36.3844 76.9184 39.6592 76.9184 39.6592C76.9184 39.6592 69.3392 27.1625 73.4499 17.4344Z" fill="#49CB5C"/>
<path d="M91.8062 4.43079C91.8062 4.43079 88.5665 5.17697 84.7316 7.01103C86.6988 11.1793 89.8181 19.6379 86.8521 26.6563C84.701 31.745 79.7775 35.0677 75.5703 37.0797C76.33 38.6887 76.9184 39.6592 76.9184 39.6592C76.9184 39.6592 91.1632 36.3844 95.2739 26.6563C99.3854 16.9283 91.8062 4.43079 91.8062 4.43079Z" fill="#07B128"/>
<path d="M96.4491 11.4209C95.033 6.9685 93.1144 3.78039 93.0329 3.64655C92.7181 3.12766 92.0707 2.85775 91.4837 2.99233C91.3319 3.02748 87.7079 3.8731 83.5284 5.96063C77.8857 8.77788 73.9439 12.5387 72.1278 16.8356C70.616 20.4133 70.3991 24.788 71.4713 29.6202C69.1872 27.0691 66.6174 24.8373 63.8166 22.9584C62.9612 21.2686 60.6995 17.1085 57.1637 12.7608C55.9996 11.3297 53.7595 13.1256 54.9356 14.5717C57.3185 17.5018 59.1114 20.3834 60.2329 22.3632L47.156 19.8144L34.7311 2.86672C35.9378 2.88392 37.1483 3.00056 38.3528 3.23683C42.172 3.98451 45.9448 5.92922 49.5673 9.01714C50.9871 10.2269 52.8302 8.02497 51.4297 6.83167C47.4274 3.42076 43.2135 1.26295 38.9046 0.418819C32.3265 -0.868686 24.6546 0.821071 16.7164 5.30715C10.7993 8.65078 6.84258 12.3234 6.67735 12.4782C6.14799 12.9724 6.0635 13.8711 6.50687 14.449C7.08707 15.6393 9.286 19.9333 12.9459 24.5562C15.1037 27.2822 17.3789 29.615 19.7326 31.532C19.0642 32.0921 18.4129 32.6782 17.7834 33.2951C14.4196 36.5856 11.8438 40.4668 10.1526 44.7099C8.65795 48.4595 7.85419 52.4925 7.80933 56.6496C7.73531 63.4475 9.7047 70.0039 13.5067 75.6108C17.2204 81.0875 22.4123 85.2925 28.5208 87.7703C30.23 88.4627 31.3112 85.8039 29.6005 85.1101C27.3873 84.2121 25.308 83.0622 23.3902 81.6939C23.6355 80.3339 24.2045 75.4388 20.9528 70.371C20.4975 69.6622 21.8582 66.8786 22.671 65.2158C23.5091 63.5021 24.3749 61.7301 24.7794 60.062C25.2086 58.29 24.7256 56.8021 23.3828 55.7584C22.3966 54.992 21.1068 54.5957 19.9696 54.2458C19.2309 54.0185 18.3935 53.7613 18.0944 53.5116C17.4783 52.9957 16.472 51.0884 15.6637 49.5564C14.7665 47.8569 13.9119 46.2397 13.0401 45.2437C15.0028 40.5827 18.155 36.4585 22.1027 33.3033C25.7088 35.7602 29.8248 37.4552 34.1995 37.7983C29.1257 41.7296 27.4845 46.7496 29.8308 51.5721C32.5703 57.2029 38.2085 56.3034 43.1836 55.5109C44.0442 55.3733 44.9347 55.2313 45.7878 55.1251C46.1078 55.0847 46.2042 55.1722 46.2685 55.229C47.3579 56.198 47.3257 60.8262 47.3026 64.2057C47.2704 68.8802 47.2405 73.2952 48.9818 75.5622C49.8701 76.7181 51.121 77.3088 52.5872 77.3088C53.4657 77.3088 54.4205 77.0972 55.4216 76.668C59.7514 74.8138 64.2525 69.2331 63.5661 64.8173C62.9657 60.957 62.5687 58.4067 63.5048 56.3505C64.3706 54.4477 66.4626 52.6862 70.5831 50.4386C71.0765 52.6607 71.3255 54.9726 71.3001 57.3442C71.2119 65.4393 67.9759 73.0163 62.1889 78.6778C55.7214 85.0046 46.6311 88.1292 37.6395 87.1385C35.807 86.9396 35.4907 89.7905 37.3255 89.9924C47.168 91.0765 57.1188 87.6552 64.1964 80.7301C70.5322 74.5319 74.0747 66.2379 74.1712 57.3749C74.299 45.6228 68.269 35.2114 59.0897 29.2142C60.9866 27.8617 62.3997 26.6923 63.1833 26.0134C66.5299 28.4142 69.4982 31.372 71.9678 34.8181C77.8969 43.0919 80.2483 53.1789 78.59 63.2217C75.1656 83.9527 55.5151 98.0345 34.7804 94.6093C24.7368 92.9502 15.9411 87.4809 10.012 79.2071C4.08289 70.9333 1.73144 60.8456 3.3898 50.8035C3.68812 48.9964 0.856655 48.5223 0.557583 50.3354C-1.22638 61.1349 1.30302 71.9823 7.67774 80.8797C14.0532 89.7763 23.5129 95.6583 34.3124 97.4423C36.5711 97.8154 38.8321 97.9993 41.0774 97.9993C49.565 97.9993 57.8217 95.3637 64.8581 90.3221C73.7562 83.9467 79.639 74.4885 81.4222 63.689C82.7291 55.7756 81.7175 47.8367 78.5765 40.6575C80.0263 40.2298 82.4936 39.3999 85.1957 38.0503C90.8377 35.2331 94.7803 31.4722 96.5956 27.1753C98.4125 22.8776 98.3616 17.43 96.4491 11.4209ZM13.1238 50.8962C14.1923 52.9217 15.2024 54.8357 16.2521 55.7135C16.9953 56.3348 18.0301 56.6533 19.1255 56.9898C21.9315 57.8526 22.2575 58.2758 21.9883 59.3854C21.6579 60.7499 20.8616 62.3791 20.0915 63.9544C18.6088 66.9878 17.2084 69.8521 18.5356 71.9217C20.4182 74.8549 20.7405 77.7424 20.7083 79.5391C12.1571 71.8283 8.67515 59.6493 11.8603 48.5799C12.2827 49.3036 12.7268 50.1448 13.1238 50.8962ZM82.5833 22.6832L78.5033 12.7959C80.4883 10.9394 82.7919 9.54201 84.7539 8.55807C86.4249 7.71992 88.0152 7.09261 89.29 6.64849L82.5833 22.6832ZM91.9368 7.76179C92.5073 8.98649 93.1683 10.5663 93.7327 12.3518C94.3518 14.3115 94.9201 16.7399 95.033 19.2731L85.4716 23.2178L91.9368 7.76179ZM74.7723 17.9534C75.1955 16.9523 75.7428 16.0237 76.3754 15.1668L81.0199 26.4209L76.8516 36.3867C76.2662 35.1448 75.5768 33.5126 74.9914 31.6591C73.8175 27.9477 72.8269 22.5561 74.7723 17.9534ZM83.9695 35.4529C82.3613 36.2604 80.8263 36.8712 79.5762 37.3124L83.9015 26.9719L94.9111 22.429C94.7511 23.6627 94.4468 24.8852 93.9511 26.0575C92.0064 30.6602 87.45 33.7078 83.9695 35.4529ZM32.2024 34.6357C31.6947 34.5362 31.1945 34.4151 30.7011 34.2768L46.59 22.6294L59.6729 25.1797C54.9072 28.9346 43.3084 36.8114 32.2024 34.6357ZM17.681 25.653C14.2827 21.9909 11.7922 18.0745 10.3619 15.5676L27.0113 18.8132L17.681 25.653ZM20.6216 6.49896L27.5877 16.0005L10.8307 12.7339C12.9399 11.068 16.4226 8.56704 20.6216 6.49896ZM31.7411 16.8102L23.296 5.2907C25.8239 4.25143 28.538 3.43421 31.3201 3.07009L43.0026 19.0047L31.7411 16.8102ZM30.8476 19.5609L42.7544 21.8817L27.4726 33.0835C24.591 31.7526 21.9973 29.8393 19.7281 27.7121L30.8476 19.5609ZM69.8032 47.596C64.6278 50.3534 62.0932 52.5194 60.8909 55.1617C59.5996 57.9984 60.0729 61.0437 60.7279 65.2584C61.1144 67.7437 58.1611 72.3711 54.2911 74.0287C52.8593 74.6418 51.8395 74.5693 51.2585 73.8126C50.1176 72.3285 50.149 67.8349 50.1736 64.2251C50.2073 59.2306 50.2372 54.9172 48.1766 53.0839C47.4356 52.4252 46.4876 52.1463 45.4341 52.2757C44.5317 52.3878 43.6157 52.5336 42.7312 52.6749C37.4541 53.5161 34.1329 53.8525 32.4125 50.316C29.6251 44.5873 35.2679 40.3442 37.8227 38.786C38.3431 38.469 38.8261 38.0952 39.2747 37.6787C45.4506 36.9408 51.2862 34.291 56.4863 30.972C62.7212 34.697 67.5079 40.5924 69.8032 47.596Z" fill="black"/>
</g>
<defs>
<clipPath id="clip0_441_339">
<rect width="98" height="98" fill="white"/>
</clipPath>
</defs>
</svg>
