<svg width="80" height="80" viewBox="0 0 80 80" fill="none" xmlns="http://www.w3.org/2000/svg">
<path fill-rule="evenodd" clip-rule="evenodd" d="M17.9162 43.1361H20.4236C20.4799 43.1361 20.528 43.1674 20.5511 43.2188C20.7976 43.7711 21.0679 44.3129 21.361 44.8428C21.3842 44.8847 21.385 44.9311 21.3632 44.9738L20.7244 46.2277C20.0367 47.5775 20.2925 49.1933 21.3637 50.2645L24.2807 53.1813C25.3519 54.2525 26.9677 54.5084 28.3175 53.8207L29.5712 53.1818C29.6138 53.1601 29.6604 53.1609 29.7023 53.1841C31.0956 53.9549 32.5716 54.5669 34.102 55.0073C34.1479 55.0205 34.1813 55.0529 34.1962 55.0983L34.6308 56.4356C35.0992 57.8777 36.4212 58.838 37.9375 58.838H42.0626C43.5789 58.838 44.9007 57.8777 45.3693 56.4356L45.8037 55.0985C45.8184 55.053 45.852 55.0207 45.898 55.0074C47.4282 54.5669 48.9042 53.9549 50.2975 53.1841C50.3394 53.1609 50.386 53.1601 50.4285 53.1818L51.6824 53.8207C53.0322 54.5084 54.648 54.2525 55.7192 53.1813L58.6362 50.2645C59.7074 49.1933 59.9632 47.5775 59.2756 46.2277L58.6367 44.974C58.6149 44.9314 58.6157 44.8849 58.6389 44.8429C58.932 44.313 59.2023 43.7711 59.4488 43.2189C59.4719 43.1674 59.52 43.1362 59.5764 43.1362H62.0836C63.0871 43.1362 63.908 43.9572 63.908 44.9607V63.7033C63.908 63.7802 63.8453 63.8429 63.7684 63.8429H16.2314C16.1544 63.8429 16.0917 63.7802 16.0917 63.7033V44.9604C16.0917 43.957 16.9127 43.1361 17.9162 43.1361ZM43.3663 34.5453H36.6328C36.5932 34.5453 36.5589 34.5601 36.5316 34.5889C36.5042 34.6177 36.4912 34.6525 36.4933 34.6922C36.6837 38.4037 37.7724 42.2453 39.8876 45.0865C39.9148 45.1231 39.954 45.1426 39.9996 45.1426C40.0452 45.1426 40.0844 45.1229 40.1116 45.0865C42.2266 42.2452 43.3152 38.4037 43.5058 34.6922C43.5079 34.6525 43.4949 34.6177 43.4676 34.5889C43.4402 34.5601 43.406 34.5453 43.3663 34.5453ZM51.5748 34.5453H45.8069C45.7324 34.5453 45.6709 34.6039 45.6676 34.6785C45.4925 38.4369 44.4898 42.2263 42.5786 45.2879C42.5479 45.3372 42.55 45.397 42.5842 45.4441C42.6184 45.4909 42.6744 45.5114 42.7308 45.4975C47.674 44.2679 51.2287 39.8525 51.714 34.6981C51.7178 34.6575 51.7056 34.6213 51.6781 34.5911C51.6506 34.5609 51.6156 34.5453 51.5748 34.5453ZM44.4194 25.542C45.1188 27.5777 45.5575 29.849 45.668 32.2535C45.6716 32.3281 45.7328 32.3868 45.8076 32.3868H51.5748C51.6156 32.3868 51.6506 32.3713 51.6781 32.341C51.7055 32.3109 51.7178 32.2745 51.714 32.234C51.2288 27.0834 47.6796 22.6708 42.7416 21.4373C42.6853 21.4233 42.6292 21.4437 42.5949 21.4906C42.5607 21.5375 42.5584 21.5973 42.5892 21.6466C43.3132 22.8103 43.9309 24.1201 44.4194 25.542ZM37.6202 26.2418C38.1986 24.5585 38.9701 23.0644 39.8876 21.8313C39.9148 21.7946 39.954 21.7749 39.9996 21.7749C40.0452 21.7749 40.0844 21.7946 40.1116 21.8313C42.2295 24.6762 43.3181 28.5236 43.5064 32.2402C43.5085 32.2799 43.4954 32.3146 43.4682 32.3434C43.4408 32.3722 43.4068 32.3868 43.3669 32.3868H36.632C36.5924 32.3868 36.5581 32.3721 36.5309 32.3434C36.5036 32.3146 36.4906 32.2797 36.4927 32.2402C36.6015 30.0853 36.9967 28.0565 37.6202 26.2418ZM28.4245 32.3868H34.1917C34.2664 32.3868 34.3277 32.3281 34.3311 32.2535C34.504 28.4967 35.5034 24.7089 37.41 21.6466C37.4407 21.5973 37.4384 21.5375 37.4042 21.4905C37.37 21.4436 37.3138 21.4233 37.2576 21.4372C32.3197 22.6708 28.7704 27.0834 28.2853 32.2338C28.2815 32.2745 28.2936 32.3108 28.3212 32.3409C28.3487 32.3709 28.3837 32.3868 28.4245 32.3868ZM35.5797 41.3754C34.8816 39.3439 34.4432 37.0775 34.3317 34.6785C34.3282 34.6039 34.2669 34.5453 34.1922 34.5453H28.4244C28.3836 34.5453 28.3485 34.5609 28.321 34.5911C28.2936 34.6212 28.2813 34.6577 28.2852 34.6981C28.7704 39.8525 32.325 44.2681 37.2684 45.4975C37.3247 45.5116 37.3808 45.4911 37.4151 45.4441C37.4493 45.397 37.4514 45.3373 37.4207 45.2879C36.692 44.1201 36.0708 42.8044 35.5797 41.3754ZM69.3204 18.9922C70.9184 18.9922 72.214 20.2877 72.214 21.8857C72.214 23.9615 70.1069 25.3268 68.238 24.5698C68.1848 24.5484 68.1272 24.5599 68.0868 24.6005L61.9072 30.7801C61.7172 30.9735 61.4527 31.0937 61.16 31.0937H56.1122C55.5338 31.0937 55.0647 30.6247 55.0647 30.0461C55.0647 29.4677 55.5336 28.9986 56.1122 28.9986H60.6685C60.7069 28.9986 60.74 28.9849 60.7672 28.9577L66.6056 23.1193C66.6461 23.0788 66.6578 23.0212 66.6362 22.9681C65.8794 21.0996 67.2444 18.9922 69.3204 18.9922ZM39.9996 6.4823C41.5976 6.4823 42.8932 7.77782 42.8932 9.3759C42.8932 10.5721 42.1672 11.5986 41.132 12.0394C41.0794 12.0618 41.0471 12.1106 41.0471 12.1679V17.0417C41.0471 17.6201 40.5781 18.0892 39.9996 18.0892C39.4212 18.0892 38.952 17.6202 38.952 17.0417V12.1677C38.952 12.1105 38.9197 12.0617 38.8671 12.0393C37.8319 11.5986 37.106 10.5719 37.106 9.37574C37.1061 7.77782 38.4015 6.4823 39.9996 6.4823ZM10.6788 18.9922C9.08068 18.9922 7.78516 20.2877 7.78516 21.8857C7.78516 23.9615 9.8922 25.3268 11.7612 24.5698C11.8143 24.5484 11.8719 24.5599 11.9124 24.6005L18.0919 30.7801C18.282 30.9735 18.5464 31.0937 18.8391 31.0937H23.8637C24.4421 31.0937 24.9112 30.6247 24.9112 30.0461C24.9112 29.4677 24.4423 28.9986 23.8637 28.9986H19.3306C19.2922 28.9986 19.2591 28.9849 19.2319 28.9577L13.3935 23.1193C13.353 23.0788 13.3413 23.0212 13.3628 22.9681C14.1197 21.0989 12.7544 18.9922 10.6788 18.9922ZM45.928 65.9375H34.0711C34.0228 65.9375 33.9812 65.9599 33.9546 66.0001C33.9279 66.0404 33.9237 66.0874 33.9426 66.1317L34.8992 68.3754C35.1066 68.862 35.677 69.1777 36.3484 69.1777H43.6506C44.322 69.1777 44.8924 68.862 45.0997 68.3754L46.0564 66.1317C46.0754 66.0873 46.0711 66.0404 46.0444 66.0001C46.018 65.9599 45.9764 65.9375 45.928 65.9375ZM67.8719 70.0829C66.3503 72.2551 63.6034 73.5181 60.401 73.5181H19.5981C16.3957 73.5181 13.6488 72.2551 12.1272 70.0829L10.7295 68.0876C10.0749 67.1532 10.802 65.9377 11.99 65.9377H31.4903C31.5474 65.9377 31.5964 65.97 31.6188 66.0226L32.9725 69.1973C33.545 70.5399 34.9282 71.2729 36.3487 71.2729H43.6509C45.0714 71.2729 46.4546 70.5399 47.0271 69.1973L48.3808 66.0226C48.4032 65.97 48.452 65.9377 48.5093 65.9377H68.0092C69.1975 65.9377 69.9242 67.1533 69.2696 68.0876L67.8719 70.0829ZM62.1975 34.6849C62.1975 34.6079 62.1348 34.5452 62.0578 34.5452H54.0168C53.9439 34.5452 53.8837 34.6007 53.8778 34.6733C53.6106 37.9359 52.2586 41.1281 49.821 43.6781C44.5296 49.214 35.5256 49.2727 30.178 43.6781C27.7405 41.1281 26.3884 37.9359 26.1212 34.6733C26.1152 34.6007 26.0549 34.5452 25.9821 34.5452H17.9412C17.8642 34.5452 17.8015 34.6079 17.8015 34.6849V36.6077C17.8015 37.2167 18.1773 37.7338 18.7564 37.922L21.1872 38.7119C21.2354 38.7276 21.269 38.7645 21.2802 38.8138C21.7663 40.9545 22.6098 42.9593 23.7452 44.762C23.7722 44.8047 23.7744 44.8546 23.7514 44.8997L22.5904 47.1785C22.3141 47.721 22.414 48.3524 22.8445 48.7831L25.7615 51.7001C26.192 52.1306 26.8236 52.2306 27.3661 51.9541L29.6448 50.7932C29.69 50.7703 29.7399 50.7725 29.7826 50.7994C31.5852 51.9349 33.5903 52.7781 35.7308 53.2644C35.78 53.2756 35.817 53.3093 35.8327 53.3573L36.6226 55.7882C36.8108 56.3673 37.328 56.7431 37.937 56.7431H42.0621C42.6711 56.7431 43.1882 56.3673 43.3765 55.7882L44.1664 53.3573C44.1821 53.3092 44.2191 53.2756 44.2684 53.2644C46.409 52.7783 48.4138 51.9348 50.2165 50.7994C50.2594 50.7725 50.3092 50.7701 50.3543 50.7932L52.633 51.9541C53.1756 52.2306 53.8069 52.1306 54.2376 51.7001L57.1546 48.7831C57.5852 48.3525 57.6852 47.721 57.4087 47.1785L56.2477 44.8997C56.2248 44.8546 56.2271 44.8047 56.254 44.762C57.3895 42.9594 58.2327 40.9543 58.7189 38.8138C58.7301 38.7645 58.7639 38.7276 58.8119 38.7119L61.2428 37.922C61.8218 37.7338 62.1976 37.2165 62.1976 36.6077V34.6849H62.1975Z" fill="black" fill-opacity="0.8"/>
</svg>
