<svg width="98" height="98" viewBox="0 0 98 98" fill="none" xmlns="http://www.w3.org/2000/svg">
<g clip-path="url(#clip0_441_376)">
<path d="M8.36994 34.7223L10.4354 38.9771C10.9136 39.9622 10.2445 41.1187 9.15216 41.1951L5.79564 41.43C4.70615 41.5062 3.86133 42.4123 3.86133 43.5043C3.86133 44.4917 4.55568 45.3428 5.52284 45.5412L6.95443 45.8348C8.16108 46.0824 8.60809 47.5724 7.73723 48.4432C7.13323 49.0472 7.13323 50.0264 7.73723 50.6302L10.3085 53.2015C10.904 53.7972 11.867 53.8064 12.474 53.2225L13.8099 51.9376C14.7924 50.9924 16.4284 51.6889 16.4284 53.0521V65.3428L28.2667 67.2572L42.1124 65.3428L63.5765 49.943C64.0417 49.5367 64.2205 48.8929 64.0316 48.305L60.5497 37.4691C60.3946 36.9867 60.0131 36.6107 59.5283 36.4629L43.2609 32.6703L32.0955 30.7559L9.05874 32.6703C8.31614 33.0484 7.99893 33.9581 8.36994 34.7223Z" fill="#FBF5D9"/>
<path d="M78.2931 32.6706C78.2198 32.8088 78.1788 32.9641 78.1788 33.1247V36.286C78.1788 36.8218 77.7444 37.256 77.2088 37.256H74.4693C74.1304 37.256 73.8163 37.0793 73.6403 36.7898L71.6585 33.5296C71.4826 33.2402 71.1683 33.0635 70.8296 33.0635H68.4353C67.7064 33.0635 67.238 33.8369 67.5755 34.4828L71.3298 41.6677C71.4972 41.9878 71.8283 42.1887 72.1896 42.1887H76.8896C77.7674 42.1887 78.1937 43.2613 77.5557 43.8639L76.6741 44.6967C76.48 44.8799 76.3701 45.1351 76.3701 45.402V47.7954C76.3701 48.3312 76.8045 48.7654 77.3401 48.7654H78.7778C78.9377 48.7654 79.0916 48.8087 79.2306 48.8824C79.3077 48.9233 79.5731 48.7796 79.6376 48.8408L81.1812 48.7662C81.7342 49.2917 82.6495 49.0024 82.8004 48.2544L83.2721 45.7353C83.3634 45.2825 83.7612 44.9569 84.223 44.9569H85.7248C86.2017 44.9569 86.6079 44.6102 86.6828 44.1392L87.8423 38.0534C87.8764 37.8389 87.9815 37.6423 88.1406 37.4945L90.9952 31.5371L78.2931 32.6706Z" fill="#FBF5D9"/>
<path d="M84.2056 38.2439L83.2375 44.3298C83.1625 44.8008 82.7564 45.1475 82.2796 45.1475H80.7777C80.3158 45.1475 79.918 45.4731 79.8268 45.9258L79.2314 48.8815C79.3086 48.9225 79.3825 48.9701 79.447 49.0314L81.182 50.6797C81.7351 51.2052 82.6504 50.9159 82.8012 50.168L83.6558 45.9258C83.7471 45.4731 84.145 45.1475 84.6067 45.1475H86.1086C86.5854 45.1475 86.9917 44.8008 87.0665 44.3298L88.0346 38.2439C88.0687 38.0295 88.1738 37.8329 88.3329 37.6851L93.7388 32.6701L91.2964 30.7557L89.91 32.6701L84.5041 37.6851C84.3446 37.8329 84.2397 38.0295 84.2056 38.2439Z" fill="#F7EBC9"/>
<path d="M91.6289 30.9932L85.5309 27.9191C85.2049 27.7784 84.8282 27.8272 84.5485 28.046L83.6418 28.3732L78.5506 32.3603C78.4423 32.4451 78.3558 32.5516 78.293 32.6701H91.8236L91.9044 32.5952C92.4182 32.1185 92.2725 31.271 91.6289 30.9932Z" fill="#FFA54D"/>
<path d="M93.5431 30.9933L85.5307 27.5363C85.2047 27.3956 84.828 27.4444 84.5483 27.6632L83.6416 28.3733L89.7141 30.9933C90.3575 31.2709 90.5034 32.1184 89.9896 32.5951L89.9088 32.6699H93.7376L93.8184 32.5951C94.3324 32.1186 94.1867 31.2711 93.5431 30.9933Z" fill="#FF924C"/>
<path d="M65.9459 48.3049L62.4639 37.469C62.3089 36.9866 61.9273 36.6106 61.4426 36.4628L49.004 32.6702L46.3207 32.4788L43.2608 32.6702L55.6994 36.4628C56.1841 36.6106 56.5657 36.9866 56.7207 37.469L60.2026 48.3049C60.3916 48.8929 60.2126 49.5367 59.7476 49.9429L42.1123 65.3427L43.9499 66.4914L47.8555 65.3427L65.4908 49.9429C65.9558 49.5367 66.1348 48.8927 65.9459 48.3049Z" fill="#F7EBC9"/>
<path d="M38.867 25.7014C39.2169 25.0051 38.9943 24.1574 38.3476 23.723L33.785 20.53C33.1351 20.0935 32.914 19.2403 33.27 18.5428L38.9327 10.4528C39.1111 10.1034 39.1499 9.69907 39.0416 9.32194L38.5639 7.37882C38.3394 6.59812 37.5491 6.12431 36.7548 6.29392L33.2329 6.91151C33.1531 6.92855 32.9972 6.74745 32.9168 6.75185C32.5537 6.77118 32.192 6.66187 31.8984 6.43846L25.7327 1.74913C25.2912 1.41335 24.7039 1.33983 24.1931 1.55616L20.8814 2.95942C19.8888 3.38001 19.6204 4.66151 20.3605 5.44508L21.7882 6.95688C22.1656 7.35642 22.3026 7.92634 22.1479 8.45375L20.8381 12.9224C20.698 13.4002 20.7968 13.9163 21.1031 14.3088L23.2591 17.0711C23.6808 17.6115 23.6965 18.365 23.2977 18.9225L15.5287 29.7802C15.3583 30.0185 15.1236 30.2035 14.8522 30.3136L9.17978 32.6135C9.13785 32.6306 9.09803 32.6503 9.05859 32.6702H43.2605L40.1828 30.1558C39.2658 29.8763 38.8214 28.8385 39.2522 27.982L38.867 25.7014Z" fill="#FFA54D"/>
<path d="M40.7577 30.1561C39.8407 29.8766 39.3963 28.8388 39.8271 27.9823L40.9736 25.7016C41.3235 25.0054 41.1009 24.1577 40.4542 23.7233L35.7002 20.5303C35.0502 20.0938 34.8291 19.2405 35.1852 18.5431L39.3163 10.453C39.4947 10.1037 39.5336 9.69933 39.4252 9.32219L38.7561 6.99619C38.5316 6.2155 37.7413 5.74169 36.947 5.9113L33.158 6.72014C33.0782 6.73717 32.9976 6.7456 32.9172 6.74981C32.9551 6.82811 32.9879 6.90985 33.0127 6.99619L33.6818 9.32219C33.7904 9.69933 33.7513 10.1035 33.5729 10.453L29.4418 18.5431C29.0857 19.2403 29.307 20.0936 29.9568 20.5303L34.7108 23.7233C35.3577 24.1577 35.5802 25.0056 35.2302 25.7016L34.0837 27.9823C33.6531 28.8388 34.0974 29.8766 35.0143 30.1561L43.2609 32.6704H49.0041L40.7577 30.1561Z" fill="#FF924C"/>
<path d="M16.4287 65.3418V67.6841C16.4287 67.8874 16.4689 68.0888 16.5468 68.2766L27.1769 93.9007L27.8918 95.2411C28.2992 96.223 29.5531 96.5108 30.3476 95.8043L37.194 89.7612C37.4929 89.4954 37.6772 89.1244 37.7084 88.7258L38.9049 73.41C38.9365 73.0067 39.1247 72.6318 39.4295 72.3657L42.1125 65.3418H16.4287Z" fill="#A4E897"/>
<path d="M42.1124 65.3418L34.069 72.3657C33.7642 72.6318 33.5758 73.0067 33.5444 73.41L32.3479 88.7258C32.3167 89.1244 32.1324 89.4956 31.8335 89.7612L27.1768 93.9007L27.8916 95.624C28.299 96.6059 29.5529 96.8936 30.3474 96.1872L37.5768 89.7612C37.8756 89.4954 38.0599 89.1244 38.0912 88.7258L39.2877 73.41C39.3192 73.0067 39.5074 72.6318 39.8122 72.3657L47.8556 65.3418H42.1124Z" fill="#80D99F"/>
<path d="M14.9976 67.6864C14.9976 68.0804 15.074 68.4646 15.225 68.8293L26.5701 96.1766C27.3426 98.0385 29.7955 98.6054 31.3062 97.2628L38.5355 90.8367C39.1148 90.3218 39.4671 89.6127 39.5274 88.84L39.9047 84.0115C39.9665 83.221 39.3758 82.5301 38.5851 82.4683C37.7943 82.4069 37.1036 82.9974 37.0417 83.7881L36.6644 88.6166C36.6621 88.6451 36.6491 88.6715 36.6276 88.6907L29.3985 95.1168C29.3856 95.1281 29.356 95.1551 29.3001 95.1418C29.2445 95.1292 29.2292 95.0923 29.2227 95.0764L17.8778 67.7295C17.872 67.7157 17.8692 67.7014 17.8692 67.6864V66.78H44.0333L38.8727 71.2867C38.2815 71.8028 37.9222 72.5182 37.8609 73.3006L37.5305 77.5305C37.4686 78.3209 38.0594 79.0118 38.8501 79.0739C38.8882 79.0769 38.9259 79.0781 38.9634 79.0781C39.7056 79.0781 40.3345 78.5066 40.3933 77.7541L40.7237 73.5242C40.726 73.4957 40.7396 73.4685 40.7612 73.4496L66.4397 51.0258C67.3375 50.2418 67.6821 49.0022 67.3176 47.867L63.8357 37.0311C63.5369 36.1009 62.8004 35.3755 61.8662 35.0909L41.1805 28.7839C41.1671 28.7798 41.1315 28.7689 41.1112 28.7216C41.0911 28.6744 41.1077 28.6409 41.114 28.6284L42.2606 26.3478C42.9339 25.0087 42.5031 23.3684 41.2588 22.5326L36.5047 19.3395C36.4582 19.3083 36.4423 19.2471 36.468 19.1973L40.5991 11.1072C40.9444 10.4311 41.0191 9.65668 40.8093 8.92653L40.1402 6.60053C39.7091 5.10174 38.1762 4.18302 36.6514 4.50828L32.8628 5.3173C32.8308 5.32419 32.7983 5.31654 32.7726 5.29701L26.6071 0.607681C25.758 -0.0380474 24.6207 -0.180862 23.6382 0.235521L20.3267 1.63878C19.4277 2.01955 18.7716 2.81728 18.5714 3.77295C18.3711 4.72843 18.6516 5.72277 19.322 6.43263L20.7496 7.94405C20.7766 7.97258 20.7865 8.01374 20.7754 8.05145L19.4658 12.5201C19.1964 13.4393 19.3873 14.4389 19.9767 15.1939L22.1327 17.9564C22.1628 17.9947 22.1638 18.049 22.1356 18.0887L20.2794 20.6829C19.8178 21.3276 19.9666 22.2245 20.6116 22.6861C21.2565 23.1477 22.1532 22.9987 22.6146 22.354L24.471 19.7597C25.2348 18.6923 25.2042 17.2239 24.3965 16.1896L22.2407 13.4273C22.2187 13.3993 22.2118 13.362 22.2218 13.3277L23.5314 8.85933C23.8283 7.84642 23.5626 6.74047 22.8376 5.9726L21.4099 4.46118C21.398 4.44855 21.37 4.41906 21.3819 4.3624C21.3938 4.30573 21.4309 4.29003 21.447 4.28314L24.7585 2.87989C24.7949 2.864 24.8372 2.86955 24.869 2.89367L31.0345 7.583C31.727 8.10965 32.6116 8.30741 33.4626 8.12592L37.2514 7.3169C37.3073 7.30426 37.3649 7.33872 37.3808 7.39443L38.0498 9.72024C38.0577 9.74761 38.0548 9.77614 38.0422 9.80122L33.9111 17.8915C33.2252 19.235 33.6523 20.8824 34.9043 21.7234L39.6583 24.9164C39.7045 24.9474 39.7205 25.0083 39.6955 25.058L38.5489 27.3385C38.153 28.1259 38.1251 29.0419 38.4718 29.8521C38.7224 30.4375 39.1501 30.9169 39.6849 31.2362H16.1064C16.3323 31.0607 16.5331 30.8529 16.7016 30.6175L18.9732 27.4428C19.4346 26.798 19.2858 25.901 18.6411 25.4396C17.9963 24.9782 17.0992 25.1272 16.6378 25.7717L14.3662 28.9464C14.3541 28.9634 14.3373 28.9766 14.318 28.9845L8.64462 31.2848C7.08113 31.9198 6.34447 33.8289 7.08324 35.3505L9.14869 39.6054C9.15711 39.6226 9.17434 39.6582 9.14505 39.7092C9.11557 39.7601 9.07594 39.7628 9.05699 39.7641L5.70066 39.9992C3.86704 40.1273 2.43066 41.6676 2.43066 43.5056C2.43066 45.1673 3.61204 46.6154 5.23967 46.9491L6.67087 47.2425C6.69519 47.2475 6.73577 47.2557 6.75492 47.3193C6.77387 47.3825 6.74458 47.4118 6.72716 47.4292C6.16375 47.9924 5.85362 48.7413 5.85362 49.5381C5.85362 50.3347 6.16394 51.0836 6.72716 51.6468L9.29839 54.2184C10.439 55.3586 12.3124 55.377 13.4745 54.2588L14.8105 52.9739C14.8352 52.9499 14.8638 52.9231 14.9306 52.9518C14.998 52.9804 14.998 53.0194 14.998 53.0535V55.5177C14.998 56.3109 15.6408 56.9535 16.4338 56.9535C17.2267 56.9535 17.8696 56.3109 17.8696 55.5177V53.0535C17.8696 51.8557 17.1574 50.7786 16.0553 50.3096C14.9532 49.8404 13.6831 50.0739 12.8197 50.9042L11.4837 52.1892C11.4408 52.2311 11.3711 52.2301 11.3288 52.1878L8.75738 49.6162C8.74934 49.6082 8.72503 49.5838 8.72503 49.5381C8.72503 49.4923 8.74934 49.468 8.75757 49.4598C9.53444 48.6827 9.82102 47.5465 9.50515 46.4942C9.18946 45.4417 8.32454 44.6506 7.24768 44.4295L5.81629 44.1362C5.51821 44.0752 5.30189 43.8098 5.30189 43.5056C5.30189 43.1691 5.56473 42.8873 5.90052 42.8635L9.25704 42.6284C10.2464 42.5593 11.1337 42.0053 11.6303 41.1469C12.1269 40.2885 12.1648 39.2434 11.7318 38.3511L9.6717 34.1074H48.7948L61.029 37.8375C61.0635 37.8482 61.0906 37.8748 61.1017 37.9092L64.5837 48.7451C64.5973 48.7875 64.5844 48.8334 64.5511 48.8625L47.3215 63.9082H17.8692V61.7749C17.8692 60.9818 17.2263 60.3391 16.4334 60.3391C15.6404 60.3391 14.9976 60.9818 14.9976 61.7749V67.6864Z" fill="black"/>
<path d="M95.5345 31.4768C95.3961 30.6723 94.866 29.999 94.1165 29.6757L86.1039 26.2185C85.2941 25.8693 84.3607 25.9905 83.6679 26.5334L77.6702 31.2302C77.1026 31.6745 76.7475 32.4022 76.7475 33.1247V35.8202H74.7358L72.89 32.7833C72.4563 32.0704 71.6688 31.6276 70.8343 31.6276H68.4399C67.5911 31.6276 66.8217 32.0612 66.3819 32.7872C65.9422 33.5131 65.9145 34.3956 66.3075 35.1476L70.0618 42.3328C70.478 43.1293 71.2951 43.6242 72.1941 43.6242H75.7229L75.6928 43.6525C75.2137 44.1049 74.9388 44.7424 74.9388 45.4017V47.7951C74.9388 49.1218 76.0181 50.201 77.3446 50.201H78.5964L80.1967 51.721C80.6506 52.1521 81.2463 52.3826 81.8543 52.3826C82.0967 52.3826 82.341 52.346 82.5789 52.2708C83.4136 52.007 84.0394 51.31 84.2123 50.4519L84.9917 46.5837H86.1122C87.3018 46.5837 88.3011 45.7308 88.4881 44.5558L89.431 38.6288L94.7184 33.7237C95.34 33.1295 95.6842 32.3472 95.5345 31.4768ZM85.2206 28.9649L90.482 31.235H82.3216L85.2206 28.9649ZM87.3598 36.6336C86.9671 36.9981 86.7047 37.4901 86.6204 38.0188L85.7147 43.7123H84.6103C83.4691 43.7123 82.4773 44.5242 82.252 45.643L81.5637 49.059L80.44 47.9915C79.9909 47.5648 79.4024 47.3295 78.7825 47.3295H77.8105V45.6028L78.5464 44.9076C79.2674 44.2265 79.4964 43.191 79.13 42.2696C78.7635 41.3482 77.886 40.7526 76.8943 40.7526H72.4763L69.2088 34.4992H70.5724L72.4181 37.5358C72.8517 38.249 73.6394 38.6918 74.4737 38.6918H77.2133C78.5397 38.6918 79.6191 37.6124 79.6191 36.2859V34.1066H90.0838L87.3598 36.6336Z" fill="black"/>
<path d="M35.5937 38.5725C29.8407 38.5725 25.1602 43.253 25.1602 49.006C25.1602 54.759 29.8407 59.4395 35.5937 59.4395C41.3466 59.4395 46.0271 54.759 46.0271 49.006C46.0271 43.253 41.3466 38.5725 35.5937 38.5725ZM28.0318 49.006C28.0318 48.1091 28.1895 47.2486 28.4774 46.4497L32.7818 49.006L28.4774 51.5623C28.1895 50.7634 28.0318 49.9029 28.0318 49.006ZM43.1555 49.006C43.1555 49.9029 42.9978 50.7634 42.7099 51.5623L38.4055 49.006L42.7099 46.4497C42.9978 47.2488 43.1555 48.1091 43.1555 49.006ZM41.2396 43.983L37.0295 46.4834V41.5825C38.6892 41.9032 40.157 42.7673 41.2396 43.983ZM34.1578 41.5827V46.4836L29.9477 43.9832C31.0303 42.7673 32.4981 41.9032 34.1578 41.5827ZM29.9477 54.0292L34.1578 51.5288V56.4297C32.4981 56.109 31.0303 55.2447 29.9477 54.0292ZM37.0295 56.4295V51.5286L41.2396 54.029C40.157 55.2447 38.6892 56.109 37.0295 56.4295Z" fill="black"/>
</g>
<defs>
<clipPath id="clip0_441_376">
<rect width="98" height="98" fill="white"/>
</clipPath>
</defs>
</svg>
