<svg width="98" height="98" viewBox="0 0 98 98" fill="none" xmlns="http://www.w3.org/2000/svg">
<path d="M39.8125 33.6875H58.1875V64.3125H39.8125V33.6875Z" fill="#A8A8A8"/>
<path d="M27.5625 41.3438H39.8125V64.3125H27.5625V41.3438Z" fill="#999999"/>
<path d="M58.1875 41.3438H70.4375V64.3125H58.1875V41.3438Z" fill="#999999"/>
<path d="M48.9999 58.1875C28.9987 58.1875 11.982 70.9704 5.67627 88.8125H92.3236C86.0179 70.9704 69.0011 58.1875 48.9999 58.1875Z" fill="#A7DBFC"/>
<path d="M79.5713 69.8789C73.4386 79.0649 64.0858 85.9126 53.1235 88.8128H92.3235C89.7219 81.4521 85.2767 74.9749 79.5713 69.8789Z" fill="#90D2FC"/>
<path d="M52.0625 27.5625H45.9375C44.2455 27.5625 42.875 28.933 42.875 30.625V33.6875H55.125V30.625C55.125 28.933 53.7545 27.5625 52.0625 27.5625Z" fill="#DBDBDB"/>
<path d="M45.9375 52.0625H52.0625V58.1875H45.9375V52.0625Z" fill="#EAEAEA"/>
<path d="M61.25 71.9688L65.8438 68.9063L70.4375 70.4375L77.6528 68.9951C72.8998 64.8883 67.2709 61.7783 61.08 59.9745L58.1875 64.3125H55.125L52.0625 67.375L55.125 71.9688H61.25Z" fill="#63BC94"/>
<path d="M18.3751 70.4375H26.0314L29.0939 71.9688H33.6876L38.2814 68.9062L36.7501 64.3125L33.6876 61.25H32.4274C27.0374 63.3662 22.1696 66.5129 18.0459 70.4375H18.3751Z" fill="#63BC94"/>
<path d="M49 96.4688V93.4062C49 90.0237 46.2575 87.2812 42.875 87.2812H39.8125C36.43 87.2812 33.6875 90.0237 33.6875 93.4062V96.4688" fill="#EAEAEA"/>
<path d="M33.6875 96.4688V93.4062C33.6875 90.0237 30.945 87.2812 27.5625 87.2812H24.5C21.1175 87.2812 18.375 90.0237 18.375 93.4062V96.4688" fill="#A8A8A8"/>
<path d="M18.375 96.4688V93.4062C18.375 90.0237 15.6325 87.2812 12.25 87.2812H9.1875C5.80497 87.2812 3.0625 90.0237 3.0625 93.4062V96.4688" fill="#EAEAEA"/>
<path d="M64.3125 96.4688V93.4062C64.3125 90.0237 61.57 87.2812 58.1875 87.2812H55.125C51.7425 87.2812 49 90.0237 49 93.4062V96.4688" fill="#A8A8A8"/>
<path d="M79.625 96.4688V93.4062C79.625 90.0237 76.8825 87.2812 73.5 87.2812H70.4375C67.055 87.2812 64.3125 90.0237 64.3125 93.4062V96.4688" fill="#EAEAEA"/>
<path d="M94.9375 96.4688V93.4062C94.9375 90.0237 92.195 87.2812 88.8125 87.2812H85.75C82.3675 87.2812 79.625 90.0237 79.625 93.4062V96.4688" fill="#A8A8A8"/>
<path d="M41.3438 87.2812C43.8808 87.2812 45.9375 85.2246 45.9375 82.6875C45.9375 80.1504 43.8808 78.0938 41.3438 78.0938C38.8067 78.0938 36.75 80.1504 36.75 82.6875C36.75 85.2246 38.8067 87.2812 41.3438 87.2812Z" fill="#FFD6A8"/>
<path d="M26.0312 87.2812C28.5683 87.2812 30.625 85.2246 30.625 82.6875C30.625 80.1504 28.5683 78.0938 26.0312 78.0938C23.4942 78.0938 21.4375 80.1504 21.4375 82.6875C21.4375 85.2246 23.4942 87.2812 26.0312 87.2812Z" fill="#FFD6A8"/>
<path d="M10.7188 87.2812C13.2558 87.2812 15.3125 85.2246 15.3125 82.6875C15.3125 80.1504 13.2558 78.0938 10.7188 78.0938C8.18169 78.0938 6.125 80.1504 6.125 82.6875C6.125 85.2246 8.18169 87.2812 10.7188 87.2812Z" fill="#FFD6A8"/>
<path d="M56.6562 87.2812C59.1933 87.2812 61.25 85.2246 61.25 82.6875C61.25 80.1504 59.1933 78.0938 56.6562 78.0938C54.1192 78.0938 52.0625 80.1504 52.0625 82.6875C52.0625 85.2246 54.1192 87.2812 56.6562 87.2812Z" fill="#FFD6A8"/>
<path d="M71.9688 87.2812C74.5058 87.2812 76.5625 85.2246 76.5625 82.6875C76.5625 80.1504 74.5058 78.0938 71.9688 78.0938C69.4317 78.0938 67.375 80.1504 67.375 82.6875C67.375 85.2246 69.4317 87.2812 71.9688 87.2812Z" fill="#FFD6A8"/>
<path d="M87.2812 87.2812C89.8183 87.2812 91.875 85.2246 91.875 82.6875C91.875 80.1504 89.8183 78.0938 87.2812 78.0938C84.7442 78.0938 82.6875 80.1504 82.6875 82.6875C82.6875 85.2246 84.7442 87.2812 87.2812 87.2812Z" fill="#FFD6A8"/>
<path d="M80.8563 21.1381C76.6699 25.3245 67.8637 23.3033 67.8637 23.3033C67.8637 23.3033 65.844 14.4955 70.0289 10.3106C74.2138 6.12571 83.0215 8.14543 83.0215 8.14543C83.0215 8.14543 85.0413 16.9516 80.8563 21.1381Z" fill="#63BC94"/>
<path d="M11.841 27.9721C7.65453 23.7856 9.67578 14.9794 9.67578 14.9794C9.67578 14.9794 18.4835 12.9597 22.6684 17.1446C26.8533 21.3295 24.8336 30.1373 24.8336 30.1373C24.8336 30.1373 16.0259 32.1585 11.841 27.9721Z" fill="#63BC94"/>
<path d="M66.3704 23.6439C66.5005 24.2166 66.9477 24.6637 67.5204 24.7939C67.7056 24.8368 69.8754 25.3191 72.6133 25.3191C75.6727 25.3191 79.4411 24.7158 81.9386 22.2183C86.6686 17.4868 84.6045 8.19362 84.5142 7.80009C84.384 7.2274 83.9369 6.78028 83.3642 6.65012C82.9737 6.55978 73.6775 4.49565 68.946 9.22569C64.2144 13.9572 66.28 23.2519 66.3704 23.6439ZM79.7734 20.0547C77.4475 22.3791 73.2243 22.4052 70.5721 22.151L81.957 11.9038C82.0795 14.6647 81.7135 18.1131 79.7734 20.0547ZM71.1096 11.3909C73.4279 9.07409 77.6281 9.0404 80.2818 9.29153L68.9245 19.5126C68.8066 16.7579 69.1756 13.3264 71.1096 11.3909Z" fill="black"/>
<path d="M92.0434 86.4911C92.8826 85.4422 93.4062 84.1315 93.4062 82.6875C93.4062 79.3096 90.6592 76.5625 87.2812 76.5625C87.0255 76.5625 86.7805 76.6069 86.5325 76.6375C82.6615 70.9949 77.6757 66.3873 71.9688 63.0232V41.3438C71.9688 40.4985 71.2828 39.8125 70.4375 39.8125H59.7188V33.6875C59.7188 32.8422 59.0327 32.1562 58.1875 32.1562H56.6562V30.625C56.6562 28.0923 54.5952 26.0312 52.0625 26.0312H50.5312V22.9688H47.4688V26.0312H45.9375C43.4048 26.0312 41.3438 28.0923 41.3438 30.625V32.1562H39.8125C38.9673 32.1562 38.2812 32.8422 38.2812 33.6875V39.8125H27.5625C26.7173 39.8125 26.0312 40.4985 26.0312 41.3438V62.6189C20.0532 66.0015 14.8317 70.7315 10.8091 76.5717C10.7785 76.5717 10.7494 76.5625 10.7188 76.5625C7.34081 76.5625 4.59375 79.3096 4.59375 82.6875C4.59375 84.1315 5.11744 85.4422 5.95656 86.4911C3.35038 87.7146 1.53125 90.3438 1.53125 93.4062V96.4688H4.59375V93.4062C4.59375 90.8736 6.65481 88.8125 9.1875 88.8125H12.25C14.7827 88.8125 16.8438 90.8736 16.8438 93.4062V96.4688H19.9062V93.4062C19.9062 90.8736 21.9673 88.8125 24.5 88.8125H27.5625C30.0952 88.8125 32.1562 90.8736 32.1562 93.4062V96.4688H35.2188V93.4062C35.2188 90.8736 37.2798 88.8125 39.8125 88.8125H42.875C45.4077 88.8125 47.4688 90.8736 47.4688 93.4062V96.4688H50.5312V93.4062C50.5312 90.8736 52.5923 88.8125 55.125 88.8125H58.1875C60.7202 88.8125 62.7812 90.8736 62.7812 93.4062V96.4688H65.8438V93.4062C65.8438 90.8736 67.9048 88.8125 70.4375 88.8125H73.5C76.0327 88.8125 78.0938 90.8736 78.0938 93.4062V96.4688H81.1562V93.4062C81.1562 90.8736 83.2173 88.8125 85.75 88.8125H88.8125C91.3452 88.8125 93.4062 90.8736 93.4062 93.4062V96.4688H96.4688V93.4062C96.4688 90.3438 94.6496 87.7146 92.0434 86.4911ZM59.7188 42.875H68.9062V61.371C65.9816 59.9347 62.9083 58.7969 59.7188 58.0083V42.875ZM59.4615 65.1623L61.7339 61.7553C66.2005 63.1824 70.3854 65.3476 74.1477 68.1345L70.537 68.8572L66.3292 67.4546C65.882 67.3076 65.389 67.3704 64.9954 67.6338L60.786 70.4375H55.9442L54.0317 67.5695L55.7589 65.8438H58.1875C58.6989 65.8438 59.1767 65.588 59.4615 65.1623ZM44.4062 30.625C44.4062 29.7813 45.0938 29.0938 45.9375 29.0938H52.0625C52.9062 29.0938 53.5938 29.7813 53.5938 30.625V32.1562H44.4062V30.625ZM41.3438 35.2188H56.6562V57.3683C55.6441 57.1907 54.6227 57.0498 53.5938 56.9395V52.0625C53.5938 51.2173 52.9077 50.5312 52.0625 50.5312H45.9375C45.0923 50.5312 44.4062 51.2173 44.4062 52.0625V56.8737C43.3773 56.9686 42.3574 57.0973 41.3438 57.2596V35.2188ZM50.5312 53.5938V56.7144C49.905 56.6899 49.2787 56.6562 48.6493 56.6562C48.2543 56.6562 47.8638 56.6823 47.4688 56.693V53.5938H50.5312ZM29.0938 42.875H38.2812V57.8537C35.1008 58.5887 32.0215 59.6453 29.0938 61.0234V42.875ZM32.9586 62.6863L35.4117 65.1394L36.4591 68.2815L33.2235 70.4375H29.4551L26.7157 69.067C26.5044 68.9614 26.2686 68.9062 26.0312 68.9062H22.1296C25.4218 66.3123 29.0677 64.2145 32.9586 62.6863ZM10.7188 85.75C9.02978 85.75 7.65625 84.3765 7.65625 82.6875C7.65625 80.9985 9.02978 79.625 10.7188 79.625C12.4077 79.625 13.7812 80.9985 13.7812 82.6875C13.7812 84.3765 12.4077 85.75 10.7188 85.75ZM26.0312 85.75C24.3423 85.75 22.9688 84.3765 22.9688 82.6875C22.9688 80.9985 24.3423 79.625 26.0312 79.625C27.7202 79.625 29.0938 80.9985 29.0938 82.6875C29.0938 84.3765 27.7202 85.75 26.0312 85.75ZM41.3438 85.75C39.6548 85.75 38.2812 84.3765 38.2812 82.6875C38.2812 80.9985 39.6548 79.625 41.3438 79.625C43.0327 79.625 44.4062 80.9985 44.4062 82.6875C44.4062 84.3765 43.0327 85.75 41.3438 85.75ZM56.6562 85.75C54.9673 85.75 53.5938 84.3765 53.5938 82.6875C53.5938 80.9985 54.9673 79.625 56.6562 79.625C58.3452 79.625 59.7188 80.9985 59.7188 82.6875C59.7188 84.3765 58.3452 85.75 56.6562 85.75ZM71.9688 85.75C70.2798 85.75 68.9062 84.3765 68.9062 82.6875C68.9062 80.9985 70.2798 79.625 71.9688 79.625C73.6577 79.625 75.0312 80.9985 75.0312 82.6875C75.0312 84.3765 73.6577 85.75 71.9688 85.75ZM81.1562 82.6875C81.1562 84.1315 81.6799 85.4422 82.5191 86.4911C81.3676 87.0317 80.3784 87.8493 79.625 88.86C78.8716 87.8493 77.884 87.0317 76.7309 86.4911C77.5701 85.4422 78.0938 84.1315 78.0938 82.6875C78.0938 79.3096 75.3467 76.5625 71.9688 76.5625C68.5908 76.5625 65.8438 79.3096 65.8438 82.6875C65.8438 84.1315 66.3674 85.4422 67.2066 86.4911C66.0551 87.0317 65.0659 87.8493 64.3125 88.86C63.5591 87.8493 62.5715 87.0317 61.4184 86.4911C62.2576 85.4422 62.7812 84.1315 62.7812 82.6875C62.7812 79.3096 60.0342 76.5625 56.6562 76.5625C53.2783 76.5625 50.5312 79.3096 50.5312 82.6875C50.5312 84.1315 51.0549 85.4422 51.8941 86.4911C50.7426 87.0317 49.7534 87.8493 49 88.86C48.2466 87.8493 47.259 87.0317 46.1059 86.4911C46.9451 85.4422 47.4688 84.1315 47.4688 82.6875C47.4688 79.3096 44.7217 76.5625 41.3438 76.5625C37.9658 76.5625 35.2188 79.3096 35.2188 82.6875C35.2188 84.1315 35.7424 85.4422 36.5816 86.4911C35.4301 87.0317 34.4409 87.8493 33.6875 88.86C32.9341 87.8493 31.9465 87.0317 30.7934 86.4911C31.6326 85.4422 32.1562 84.1315 32.1562 82.6875C32.1562 79.3096 29.4092 76.5625 26.0312 76.5625C22.6533 76.5625 19.9062 79.3096 19.9062 82.6875C19.9062 84.1315 20.4299 85.4422 21.2691 86.4911C20.1176 87.0317 19.1284 87.8493 18.375 88.86C17.6216 87.8493 16.634 87.0317 15.4809 86.4911C16.3201 85.4422 16.8438 84.1315 16.8438 82.6875C16.8438 80.484 15.6632 78.5654 13.9129 77.4858C15.3508 75.4983 16.9402 73.6562 18.6629 71.9688H25.6714L28.4108 73.3392C28.6206 73.4449 28.8564 73.5 29.0938 73.5H33.6875C33.9892 73.5 34.2862 73.4097 34.5373 73.2428L39.1311 70.1803C39.7053 69.7974 39.9534 69.0777 39.7344 68.4224L38.2032 63.8286C38.1281 63.6035 38.001 63.3983 37.8326 63.2299L36.1804 61.5777C40.1693 60.368 44.3603 59.7188 48.6493 59.7188C52.0533 59.7188 55.393 60.1322 58.6224 60.9024L57.3683 62.7812H55.125C54.7192 62.7812 54.3288 62.942 54.0424 63.2299L50.9799 66.2924C50.4639 66.8084 50.3827 67.6169 50.7885 68.2248L53.851 72.8186C54.1358 73.2443 54.6136 73.5 55.125 73.5H61.25C61.5517 73.5 61.8487 73.4097 62.0998 73.2428L66.0704 70.5952L69.9536 71.8891C70.2063 71.9733 70.4773 71.9887 70.7392 71.9381L77.2332 70.6396C79.599 72.7589 81.7366 75.1614 83.617 77.8105C82.1317 78.9313 81.1562 80.6908 81.1562 82.6875ZM87.2812 85.75C85.5923 85.75 84.2188 84.3765 84.2188 82.6875C84.2188 80.9985 85.5923 79.625 87.2812 79.625C88.9702 79.625 90.3438 80.9985 90.3438 82.6875C90.3438 84.3765 88.9702 85.75 87.2812 85.75Z" fill="black"/>
<path d="M44.4062 38.2812H53.5938V41.3438H44.4062V38.2812Z" fill="black"/>
<path d="M44.4062 44.4062H53.5938V47.4688H44.4062V44.4062Z" fill="black"/>
<path d="M32.1562 45.9375H35.2188V49H32.1562V45.9375Z" fill="black"/>
<path d="M32.1562 52.0625H35.2188V55.125H32.1562V52.0625Z" fill="black"/>
<path d="M62.7812 45.9375H65.8438V49H62.7812V45.9375Z" fill="black"/>
<path d="M62.7812 52.0625H65.8438V55.125H62.7812V52.0625Z" fill="black"/>
<path d="M20.0838 32.1556C22.8201 32.1556 24.9914 31.6733 25.1767 31.6304C25.7494 31.5002 26.1965 31.0531 26.3267 30.4804C26.417 30.0869 28.4827 20.7937 23.7511 16.0622C19.0211 11.3306 9.72486 13.3963 9.33286 13.4866C8.76017 13.6168 8.31305 14.0639 8.18289 14.6366C8.09255 15.0301 6.02689 24.3233 10.7585 29.0548C13.2544 31.5508 17.0228 32.1556 20.0838 32.1556ZM21.5859 18.2258C23.6179 20.2578 23.892 23.746 23.7603 26.3644L12.3877 16.1188C15.2619 15.8539 19.3855 16.0269 21.5859 18.2258ZM10.7477 18.7648L22.1065 28.9982C19.2324 29.26 15.1195 29.0854 12.9236 26.8896C10.8947 24.8607 10.6176 21.3817 10.7477 18.7648Z" fill="black"/>
<path d="M12.8043 33.4219C12.4368 35.5151 12.25 37.665 12.25 39.8118C12.25 47.9841 14.8746 55.7199 19.8419 62.1818L22.2705 60.3152C17.7181 54.3923 15.3125 47.3027 15.3125 39.8118C15.3125 37.8426 15.4825 35.8703 15.8209 33.9517L12.8043 33.4219Z" fill="black"/>
<path d="M76.8595 63.7803C82.5925 57.1239 85.7499 48.6117 85.7499 39.8131C85.7499 34.8228 84.7668 29.9856 82.8283 25.4316L80.0108 26.6306C81.787 30.8033 82.6874 35.2378 82.6874 39.8131C82.6874 47.8782 79.7933 55.68 74.5381 61.7835L76.8595 63.7803Z" fill="black"/>
<path d="M48.9998 6.125C54.6302 6.125 60.2009 7.54141 65.1101 10.2196L66.577 7.53069C61.2192 4.60753 55.1416 3.0625 48.9998 3.0625C39.8169 3.0625 31.0275 6.468 24.2456 12.6497L26.3097 14.9128C32.5251 9.24569 40.5825 6.125 48.9998 6.125Z" fill="black"/>
</svg>
