<svg width="81" height="80" viewBox="0 0 81 80" fill="none" xmlns="http://www.w3.org/2000/svg">
<path d="M20.348 44.0293C19.991 43.6684 19.5661 43.3816 19.0978 43.1854C18.6296 42.9893 18.1271 42.8876 17.6194 42.8862C17.1118 42.8849 16.6088 42.9839 16.1395 43.1776C15.6702 43.3712 15.2438 43.6557 14.8848 44.0147C14.5258 44.3737 14.2413 44.8001 14.0477 45.2695C13.854 45.7388 13.7551 46.2417 13.7564 46.7494C13.7578 47.2571 13.8595 47.7595 14.0557 48.2278C14.2519 48.6961 14.5387 49.1209 14.8997 49.478L21.2751 55.8536C21.3619 55.9375 21.4312 56.0378 21.4788 56.1487C21.5265 56.2596 21.5516 56.3789 21.5526 56.4996C21.5537 56.6203 21.5307 56.74 21.485 56.8517C21.4392 56.9635 21.3717 57.065 21.2864 57.1503C21.201 57.2357 21.0995 57.3032 20.9878 57.3489C20.8761 57.3946 20.7564 57.4176 20.6357 57.4165C20.515 57.4155 20.3957 57.3904 20.2847 57.3428C20.1738 57.2951 20.0735 57.2259 19.9897 57.139L13.614 50.7636C12.9216 50.0725 12.4198 49.214 12.1574 48.2716C11.895 47.3292 11.8808 46.3349 12.1164 45.3854C12.352 44.4359 12.8292 43.5636 13.5017 42.8531C14.1742 42.1426 15.0191 41.6183 15.9542 41.331V29.0909C15.9542 27.8853 15.4753 26.7292 14.6229 25.8767C13.7704 25.0243 12.6143 24.5454 11.4088 24.5454C10.2032 24.5454 9.04707 25.0243 8.19463 25.8767C7.34219 26.7292 6.8633 27.8853 6.8633 29.0909V53.9484C6.86166 54.5455 6.97848 55.137 7.20699 55.6886C7.43551 56.2403 7.77118 56.7411 8.19457 57.1621L17.7724 66.74V74.5454C17.7724 74.7865 17.8682 75.0177 18.0387 75.1882C18.2091 75.3587 18.4404 75.4545 18.6815 75.4545H35.0451C35.2862 75.4545 35.5175 75.3587 35.6879 75.1882C35.8584 75.0177 35.9542 74.7865 35.9542 74.5454V60C35.9542 59.7589 35.8583 59.5277 35.6878 59.3572C35.5111 59.1805 20.5348 44.1953 20.348 44.0293Z" fill="black" fill-opacity="0.8"/>
<path d="M69.5904 24.5454C68.3853 24.5468 67.23 25.0262 66.3778 25.8783C65.5257 26.7304 65.0463 27.8858 65.0449 29.0909V41.331C65.9801 41.6183 66.8249 42.1426 67.4974 42.8531C68.1699 43.5636 68.6472 44.4359 68.8827 45.3854C69.1183 46.3349 69.1042 47.3292 68.8417 48.2716C68.5793 49.214 68.0775 50.0725 67.3851 50.7636L61.0095 57.139C60.838 57.3046 60.6084 57.3963 60.37 57.3942C60.1316 57.3921 59.9036 57.2965 59.7351 57.128C59.5665 56.9594 59.4709 56.7314 59.4689 56.493C59.4668 56.2547 59.5584 56.025 59.724 55.8536L66.0995 49.478C66.4572 49.1202 66.741 48.6955 66.9346 48.228C67.1283 47.7606 67.2279 47.2596 67.2279 46.7537C67.2279 46.2477 67.1283 45.7467 66.9347 45.2793C66.7411 44.8119 66.4573 44.3871 66.0995 44.0294C65.7418 43.6716 65.317 43.3878 64.8496 43.1942C64.3822 43.0006 63.8812 42.9009 63.3752 42.9009C62.8693 42.9009 62.3683 43.0005 61.9008 43.1942C61.4334 43.3878 61.0087 43.6716 60.6509 44.0293C60.4642 44.1953 45.4878 59.1805 45.3111 59.3572C45.1407 59.5277 45.0449 59.7589 45.0449 60V74.5454C45.0449 74.7865 45.1407 75.0177 45.3112 75.1882C45.4817 75.3587 45.7129 75.4545 45.954 75.4545H62.3176C62.5588 75.4545 62.79 75.3587 62.9605 75.1882C63.131 75.0177 63.2267 74.7865 63.2267 74.5454V66.74L72.8046 57.1621C73.228 56.7411 73.5636 56.2403 73.7921 55.6886C74.0207 55.137 74.1375 54.5455 74.1358 53.9484V29.0909C74.1344 27.8858 73.6551 26.7304 72.8029 25.8783C71.9508 25.0262 70.7955 24.5468 69.5904 24.5454Z" fill="black" fill-opacity="0.8"/>
<path d="M56.863 31.818C56.863 23.0444 41.8267 5.59723 41.1866 4.85905C41.0987 4.76471 40.9923 4.68948 40.8741 4.63804C40.7559 4.58661 40.6283 4.56006 40.4994 4.56006C40.3704 4.56006 40.2429 4.58661 40.1247 4.63804C40.0065 4.68948 39.9001 4.76471 39.8122 4.85905C39.1721 5.59723 24.1357 23.0444 24.1357 31.818C24.1357 36.1579 25.8598 40.32 28.9285 43.3888C31.9973 46.4576 36.1595 48.1816 40.4994 48.1816C44.8393 48.1816 49.0014 46.4576 52.0702 43.3888C55.139 40.32 56.863 36.1579 56.863 31.818ZM40.4994 44.5452C37.1251 44.5414 33.89 43.1993 31.504 40.8133C29.118 38.4273 27.7759 35.1923 27.7721 31.818C27.7721 31.5769 27.8679 31.3456 28.0384 31.1751C28.2089 31.0046 28.4401 30.9089 28.6812 30.9089C28.9223 30.9089 29.1535 31.0046 29.324 31.1751C29.4945 31.3456 29.5903 31.5769 29.5903 31.818C29.5936 34.7102 30.744 37.4831 32.7891 39.5282C34.8343 41.5734 37.6071 42.7238 40.4994 42.7271C40.7405 42.7271 40.9717 42.8228 41.1422 42.9933C41.3127 43.1638 41.4085 43.395 41.4085 43.6361C41.4085 43.8773 41.3127 44.1085 41.1422 44.279C40.9717 44.4495 40.7405 44.5452 40.4994 44.5452Z" fill="black" fill-opacity="0.8"/>
</svg>
