<svg width="24" height="24" viewBox="0 0 24 24" fill="none" xmlns="http://www.w3.org/2000/svg">
<g clip-path="url(#clip0_88_1253)">
<path d="M18.1006 6.24294C16.0719 2.53419 12.7756 -0.540808 10.4131 0.752942C9.66952 1.16244 9.23827 1.88432 9.06089 2.79482C8.97277 3.24819 8.80627 3.65844 8.56814 4.05294C6.51689 7.43169 5.16314 9.11919 2.08814 10.8029C1.19002 11.2717 0.513141 12.0824 0.228141 13.0567C-0.071859 14.0804 0.089391 15.1829 0.663141 16.0829C1.35314 17.1667 2.54564 17.7592 3.77939 17.7592C3.93689 17.7592 4.09439 17.7479 4.25002 17.7288L4.96852 21.2628C5.11889 22.0091 5.55239 22.6522 6.18877 23.0733C6.81727 23.4896 7.59464 23.6399 8.33302 23.4911C9.87352 23.1746 10.8703 21.6667 10.5553 20.1314C10.5553 20.1314 9.66802 15.7492 9.66839 15.7492C11.1466 15.4526 12.7295 15.4076 14.8156 15.4563C15.2698 15.4646 15.7048 15.5238 16.1296 15.6937C16.5834 15.8752 17.018 15.9663 17.4256 15.9663C17.8456 15.9663 18.2356 15.8726 18.5881 15.6776C19.6831 15.0776 20.1744 13.6788 19.9719 11.7363C19.7956 10.0754 19.1319 8.12169 18.1006 6.24294ZM7.95952 21.6539C7.43002 21.7634 6.91289 21.4192 6.80639 20.8912L6.03052 17.0763C6.66727 16.7429 7.27064 16.4733 7.85864 16.2596L8.71814 20.5064C8.82614 21.0314 8.48414 21.5463 7.95952 21.6539ZM4.73939 15.6404C3.85064 16.1242 2.75564 15.8767 2.24189 15.0742C1.95689 14.6242 1.87814 14.0917 2.02814 13.5817C2.18077 13.0627 2.53514 12.7132 2.98814 12.4454C5.94689 10.8254 7.55939 9.09669 9.33689 6.35919C9.67064 7.62294 10.2144 8.94669 10.8969 10.1917C11.6019 11.4742 12.4231 12.6292 13.2894 13.5667C10.0269 13.5892 7.69814 14.0167 4.73939 15.6404ZM17.8153 13.9233C17.3405 14.5867 16.0993 13.5817 15.6894 13.2554C14.5719 12.3667 13.4544 10.9567 12.5431 9.28794C11.3581 7.12419 10.8706 5.16669 10.8594 3.88794C10.8545 3.35019 10.8301 2.33169 11.6019 2.33169C12.0969 2.33169 12.8769 2.75169 13.7544 3.56169C14.6319 4.37169 15.5994 5.57169 16.4581 7.14294C17.3731 8.81169 17.9581 10.5104 18.1044 11.9317C18.2206 13.0304 18.0444 13.6604 17.8153 13.9233Z" fill="black"/>
<path d="M22.0557 5.24716C21.8071 4.79304 21.2367 4.62729 20.783 4.87554L20.075 5.26366C19.6208 5.51266 19.4547 6.08229 19.7033 6.53641C19.874 6.84766 20.1946 7.02354 20.5261 7.02354C20.9333 7.02354 21.3387 6.70929 21.6837 6.51991C22.1382 6.27091 22.3047 5.70129 22.0557 5.24716Z" fill="black"/>
<path d="M18.7889 4.04898C19.2786 4.19298 19.8085 3.90273 19.9518 3.41223L20.1783 2.63711C20.3238 2.14023 20.0388 1.61973 19.5419 1.47423C19.0446 1.32948 18.5241 1.61411 18.3786 2.11098L18.1521 2.88611C18.007 3.38298 18.2916 3.90386 18.7889 4.04898Z" fill="black"/>
<path d="M23.2451 8.2349L22.47 8.0084C21.9728 7.86215 21.4523 8.14903 21.3075 8.64553C21.162 9.14278 21.4474 9.66291 21.9446 9.80841C22.2728 9.90403 22.6365 10.0724 22.9826 10.0724C23.3888 10.0724 23.7626 9.80691 23.8819 9.39741C24.0278 8.90053 23.7428 8.38003 23.2451 8.2349Z" fill="black"/>
</g>
<defs>
<clipPath id="clip0_88_1253">
<rect width="24" height="24" fill="white"/>
</clipPath>
</defs>
</svg>
