<svg width="56" height="56" viewBox="0 0 56 56" fill="none" xmlns="http://www.w3.org/2000/svg">
<rect width="56" height="56" rx="28" fill="black" fill-opacity="0.4"/>
<g filter="url(#filter0_d_285_50)">
<path d="M38.3533 18.5883V37.4118C38.3533 37.911 38.155 38.3898 37.802 38.7428C37.449 39.0958 36.9702 39.2942 36.471 39.2942H31.7651C31.2659 39.2942 30.7871 39.0958 30.4341 38.7428C30.0811 38.3898 29.8828 37.911 29.8828 37.4118V18.5883C29.8828 18.0891 30.0811 17.6103 30.4341 17.2573C30.7871 16.9043 31.2659 16.7059 31.7651 16.7059H36.471C36.9702 16.7059 37.449 16.9043 37.802 17.2573C38.155 17.6103 38.3533 18.0891 38.3533 18.5883ZM24.2357 16.7059H19.5298C19.0306 16.7059 18.5518 16.9043 18.1988 17.2573C17.8458 17.6103 17.6475 18.0891 17.6475 18.5883V37.4118C17.6475 37.911 17.8458 38.3898 18.1988 38.7428C18.5518 39.0958 19.0306 39.2942 19.5298 39.2942H24.2357C24.7349 39.2942 25.2137 39.0958 25.5667 38.7428C25.9197 38.3898 26.118 37.911 26.118 37.4118V18.5883C26.118 18.0891 25.9197 17.6103 25.5667 17.2573C25.2137 16.9043 24.7349 16.7059 24.2357 16.7059Z" fill="white"/>
</g>
<defs>
<filter id="filter0_d_285_50" x="9.04746" y="8.10593" width="37.9061" height="39.7883" filterUnits="userSpaceOnUse" color-interpolation-filters="sRGB">
<feFlood flood-opacity="0" result="BackgroundImageFix"/>
<feColorMatrix in="SourceAlpha" type="matrix" values="0 0 0 0 0 0 0 0 0 0 0 0 0 0 0 0 0 0 127 0" result="hardAlpha"/>
<feOffset/>
<feGaussianBlur stdDeviation="4.3"/>
<feComposite in2="hardAlpha" operator="out"/>
<feColorMatrix type="matrix" values="0 0 0 0 0 0 0 0 0 0 0 0 0 0 0 0 0 0 0.2 0"/>
<feBlend mode="normal" in2="BackgroundImageFix" result="effect1_dropShadow_285_50"/>
<feBlend mode="normal" in="SourceGraphic" in2="effect1_dropShadow_285_50" result="shape"/>
</filter>
</defs>
</svg>
