<svg width="56" height="56" viewBox="0 0 56 56" fill="none" xmlns="http://www.w3.org/2000/svg">
<rect width="56" height="56" rx="28" fill="black" fill-opacity="0.4"/>
<path d="M22 20V36C21.9999 36.178 22.0474 36.3527 22.1374 36.5062C22.2274 36.6597 22.3567 36.7864 22.512 36.8732C22.6673 36.96 22.843 37.0038 23.0209 37.0001C23.1988 36.9964 23.3725 36.9453 23.524 36.852L36.524 28.852C36.6696 28.7626 36.7898 28.6373 36.8733 28.4881C36.9567 28.339 37.0005 28.1709 37.0005 28C37.0005 27.8291 36.9567 27.6611 36.8733 27.512C36.7898 27.3628 36.6696 27.2375 36.524 27.148L23.524 19.148C23.3725 19.0548 23.1988 19.0037 23.0209 19C22.843 18.9963 22.6673 19.0401 22.512 19.1269C22.3567 19.2137 22.2274 19.3404 22.1374 19.4939C22.0474 19.6474 21.9999 19.8221 22 20Z" fill="white"/>
</svg>
