<svg width="80" height="80" viewBox="0 0 80 80" fill="none" xmlns="http://www.w3.org/2000/svg">
<path d="M40 20.0002C28.9722 20.0002 20 28.9725 20 40.0002C20 51.028 28.9722 60.0002 40 60.0002C51.0278 60.0002 60 51.028 60 40.0002C60 28.9725 51.0278 20.0002 40 20.0002ZM52.5 37.5002C52.5 38.882 51.3818 40.0002 50 40.0002C48.6182 40.0002 47.5 38.882 47.5 37.5002V36.0355L41.7675 41.768C41.2793 42.256 40.6397 42.5002 40 42.5002C39.3603 42.5002 38.7208 42.256 38.2325 41.7677C37.256 40.7912 37.256 39.2092 38.2325 38.2325L43.9647 32.5002H42.5C41.1182 32.5002 40 31.382 40 30.0002C40 28.6185 41.1182 27.5002 42.5 27.5002H50C51.3818 27.5002 52.5 28.6185 52.5 30.0002V37.5002Z" fill="black" fill-opacity="0.8"/>
<path d="M72.5 32.5001H69.0332C68.335 29.7706 67.2658 27.1826 65.84 24.7681L68.2837 22.3219C69.2602 21.3454 69.2602 19.7634 68.2837 18.7866L61.2135 11.7164C60.237 10.7399 58.655 10.7399 57.6783 11.7164L55.232 14.1601C52.8175 12.7346 50.2295 11.6651 47.5 10.9669V7.50012C47.5 6.11837 46.3817 5.00012 45 5.00012H35C33.6182 5.00012 32.5 6.11837 32.5 7.50012V10.9669C29.7705 11.6651 27.1825 12.7344 24.768 14.1601L22.3218 11.7164C21.3453 10.7399 19.7632 10.7399 18.7865 11.7164L11.7163 18.7866C10.7398 19.7631 10.7398 21.3451 11.7163 22.3219L14.16 24.7681C12.7345 27.1826 11.665 29.7706 10.9668 32.5001H7.5C6.11825 32.5001 5 33.6184 5 35.0001V45.0001C5 46.3819 6.11825 47.5001 7.5 47.5001H10.9668C11.665 50.2296 12.7343 52.8176 14.16 55.2321L11.7163 57.6784C10.7398 58.6549 10.7398 60.2369 11.7163 61.2136L18.7865 68.2839C19.763 69.2604 21.345 69.2604 22.3218 68.2839L24.768 65.8376C27.1825 67.2659 29.7705 68.3351 32.5 69.0334V72.5001C32.5 73.8819 33.6182 75.0001 35 75.0001H45C46.3817 75.0001 47.5 73.8819 47.5 72.5001V69.0334C50.2295 68.3351 52.8175 67.2659 55.232 65.8376L57.6783 68.2839C58.6548 69.2604 60.2367 69.2604 61.2135 68.2839L68.2837 61.2136C69.2602 60.2371 69.2602 58.6551 68.2837 57.6784L65.84 55.2321C67.2658 52.8176 68.335 50.2296 69.0332 47.5001H72.5C73.8818 47.5001 75 46.3819 75 45.0001V35.0001C75 33.6184 73.8818 32.5001 72.5 32.5001ZM40 62.5001C27.5928 62.5001 17.5 52.4074 17.5 40.0001C17.5 27.5929 27.5928 17.5001 40 17.5001C52.4072 17.5001 62.5 27.5929 62.5 40.0001C62.5 52.4074 52.4072 62.5001 40 62.5001Z" fill="black" fill-opacity="0.8"/>
</svg>
