<svg width="81" height="80" viewBox="0 0 81 80" fill="none" xmlns="http://www.w3.org/2000/svg">
<path d="M27.5309 58.438C29.8226 55.8338 31.9776 51.5369 35.9684 47.24C39.7062 43.2155 41.4416 40.8338 44.0413 37.761C47.374 33.8208 51.8382 29.1424 55.0349 25.5474H50.7537C48.2045 27.5605 40.9549 33.306 39.2884 34.8442C37.2571 36.7192 25.4195 45.9536 22.218 48.5942C15.3098 54.2916 1.75617 64.2131 1.74805 64.2192V78.7624H12.3746C12.3746 78.7624 15.8315 74.0267 17.9996 71.4067C21.5024 67.1739 24.0915 62.3463 27.5309 58.438Z" fill="black" fill-opacity="0.8"/>
<path d="M1.74805 44.0108V56.7192C1.75617 56.7142 15.3437 48.4902 16.3851 48.0736C17.4265 47.6571 26.6966 40.3652 26.6966 40.3652C26.6966 40.3652 31.6976 36.1985 34.0152 35.4692C36.3329 34.74 38.0516 32.0317 40.4996 30.4692C42.3148 29.3108 45.8732 26.7799 47.5934 25.5474H41.5777C31.7121 29.0238 23.8121 34.1764 21.2809 35.0525C18.5732 35.9899 1.75617 44.0069 1.74805 44.0108Z" fill="black" fill-opacity="0.8"/>
<path d="M1.74805 32.0317L1.74961 40.0005C1.74961 40.0005 17.5309 33.438 20.4996 32.4277C23.4684 31.4174 27.5309 29.1411 28.4684 28.7505C29.1387 28.4711 33.9623 26.5942 36.6574 25.5474H26.603C18.6202 27.475 1.75617 32.0296 1.74805 32.0317Z" fill="black" fill-opacity="0.8"/>
<path d="M1.74961 28.8286C4.8818 27.865 11.8179 26.4896 16.8973 25.5474H1.74805L1.74961 28.8286Z" fill="black" fill-opacity="0.8"/>
<path d="M46.8552 70.5942C47.5064 65.2683 50.6989 52.4481 52.57 48.2817C54.7513 43.4258 55.9566 39.4781 57.1845 36.2491C58.8678 31.8233 59.3686 28.9522 60.495 25.5474H57.3517C54.8227 30.5689 49.9216 33.9035 48.9372 36.0942C47.9073 38.386 40.9684 45.5083 39.7184 48.1255C38.6247 50.4144 32.8919 57.6745 32.1634 58.8286C28.5697 64.5208 25.1936 69.5653 24.0934 71.511C21.4286 76.2235 19.9336 78.7622 19.9336 78.7622H44.4059C44.4059 78.7622 45.193 75.3758 46.2712 72.7741C46.5638 72.0773 46.7602 71.344 46.8552 70.5942Z" fill="black" fill-opacity="0.8"/>
<path d="M78.5204 22.8252C77.1646 22.2071 75.5862 21.6402 70.9684 19.0118C67.5824 17.0837 62.7371 18.3618 60.9418 19.5587C59.4793 20.5321 54.8231 21.8243 50.7606 21.6149C48.859 21.518 45.8637 20.1227 43.6762 20.0009C41.4887 19.879 35.8949 22.0712 34.5434 21.9993C31.8886 21.839 29.2583 21.398 26.6965 20.6837C22.9043 19.5884 16.2012 16.8243 10.4996 18.8196C7.75249 19.8032 5.06338 20.9418 2.44523 22.2299C2.23586 22.333 2.05956 22.4926 1.93633 22.6908C1.8131 22.8889 1.74787 23.1177 1.74805 23.351V24.1415H79.2496V23.9618C79.2499 23.7224 79.1813 23.4879 79.052 23.2864C78.9227 23.0849 78.7382 22.9248 78.5204 22.8252Z" fill="black" fill-opacity="0.8"/>
<path d="M79.2472 25.5474H74.3359C76.1805 27.5238 77.9766 30.6203 79.2497 31.8931L79.2472 25.5474Z" fill="black" fill-opacity="0.8"/>
<path d="M69.4062 49.5317C68.6094 45.8703 68.2656 40.7252 66.8281 34.7661C66.5495 33.6114 65.9688 27.6158 65.7741 25.5474H62.6153C61.2606 30.5742 60.3341 33.9658 59.7969 36.1724C58.3138 42.2694 53.2438 55.2675 52.5703 65.4111C52.1309 72.0294 50.6562 78.7622 50.6562 78.7622H74.4062C73.6345 75.4411 72.0625 70.7817 71.8303 64.5521C71.5255 56.3806 70.2156 53.2483 69.4062 49.5317Z" fill="black" fill-opacity="0.8"/>
<path d="M71.4417 25.5474H67.875C68.3881 28.2233 70.218 37.7435 70.7089 40.011C71.2819 42.6567 73.2089 52.011 73.9381 54.74C74.6673 57.4691 75.9167 63.9067 76.6458 65.886C77.3748 67.8652 79.25 73.5681 79.25 73.5681V38.2202C78.4987 37.3318 77.8046 36.3966 77.1719 35.4202C74.1602 30.6944 74.1003 28.8985 71.4417 25.5474Z" fill="black" fill-opacity="0.8"/>
</svg>
