<svg width="81" height="80" viewBox="0 0 81 80" fill="none" xmlns="http://www.w3.org/2000/svg">
<g clip-path="url(#clip0_99_1608)">
<path d="M9.875 28.125H0.5V4.6875H9.875V28.125ZM26.5938 23.4375H14.5625V9.375H31.2812C40.3277 9.375 47.6875 16.7348 47.6875 25.7812V32.9688H33.625V30.4688C33.625 26.5917 30.4708 23.4375 26.5938 23.4375ZM28.7812 37.6562H52.2188V42.3438H28.7812V37.6562ZM50.0312 70.625C40.9848 70.625 33.625 63.2652 33.625 54.2188V47.0312H47.6875V49.5312C47.6875 53.4083 50.8417 56.5625 54.7188 56.5625H66.4375V70.625H50.0312ZM80.5 75.3125H71.125V51.875H80.5V75.3125Z" fill="black" fill-opacity="0.8"/>
</g>
<defs>
<clipPath id="clip0_99_1608">
<rect width="80" height="80" fill="white" transform="translate(0.5)"/>
</clipPath>
</defs>
</svg>
