<svg width="249" height="15" viewBox="0 0 249 15" fill="none" xmlns="http://www.w3.org/2000/svg">
<path d="M4.508 11.168C3.77067 11.168 3.122 10.9953 2.562 10.65C2.002 10.3047 1.56333 9.838 1.246 9.25C0.928667 8.65267 0.77 7.98067 0.77 7.234C0.77 6.48733 0.928667 5.82 1.246 5.232C1.56333 4.644 2.002 4.182 2.562 3.846C3.122 3.50067 3.77067 3.328 4.508 3.328C4.97467 3.328 5.41333 3.412 5.824 3.58C6.23467 3.748 6.59867 3.97667 6.916 4.266C7.23333 4.546 7.47133 4.87267 7.63 5.246L6.678 5.736C6.49133 5.33467 6.20667 5.008 5.824 4.756C5.44133 4.504 5.00267 4.378 4.508 4.378C4.01333 4.378 3.56533 4.504 3.164 4.756C2.772 4.99867 2.45933 5.33933 2.226 5.778C2.002 6.20733 1.89 6.69733 1.89 7.248C1.89 7.78933 2.002 8.27933 2.226 8.718C2.45933 9.14733 2.772 9.488 3.164 9.74C3.56533 9.992 4.01333 10.118 4.508 10.118C5.00267 10.118 5.43667 9.992 5.81 9.74C6.19267 9.488 6.482 9.152 6.678 8.732L7.63 9.25C7.47133 9.614 7.23333 9.94067 6.916 10.23C6.59867 10.5193 6.23467 10.748 5.824 10.916C5.41333 11.084 4.97467 11.168 4.508 11.168ZM12.9865 11.168C12.2772 11.168 11.6332 11 11.0545 10.664C10.4759 10.3187 10.0139 9.852 9.66853 9.264C9.33253 8.66667 9.16453 7.99 9.16453 7.234C9.16453 6.48733 9.33253 5.82 9.66853 5.232C10.0045 4.644 10.4572 4.182 11.0265 3.846C11.6052 3.50067 12.2585 3.328 12.9865 3.328C13.7145 3.328 14.3632 3.496 14.9325 3.832C15.5112 4.168 15.9639 4.63 16.2905 5.218C16.6265 5.806 16.7945 6.478 16.7945 7.234C16.7945 7.99933 16.6219 8.68067 16.2765 9.278C15.9312 9.866 15.4692 10.328 14.8905 10.664C14.3212 11 13.6865 11.168 12.9865 11.168ZM12.9865 10.118C13.4905 10.118 13.9432 9.992 14.3445 9.74C14.7552 9.488 15.0772 9.14267 15.3105 8.704C15.5532 8.26533 15.6745 7.77533 15.6745 7.234C15.6745 6.69267 15.5532 6.20733 15.3105 5.778C15.0772 5.34867 14.7552 5.008 14.3445 4.756C13.9432 4.504 13.4905 4.378 12.9865 4.378C12.4825 4.378 12.0252 4.504 11.6145 4.756C11.2132 5.008 10.8912 5.34867 10.6485 5.778C10.4059 6.20733 10.2845 6.69267 10.2845 7.234C10.2845 7.77533 10.4059 8.26533 10.6485 8.704C10.8912 9.14267 11.2132 9.488 11.6145 9.74C12.0252 9.992 12.4825 10.118 12.9865 10.118ZM18.6464 11V3.496H19.6964V4.924L19.5284 4.714C19.7337 4.27533 20.037 3.93467 20.4384 3.692C20.849 3.44933 21.297 3.328 21.7824 3.328C22.361 3.328 22.8837 3.49133 23.3504 3.818C23.817 4.14467 24.1484 4.56933 24.3444 5.092L24.0504 5.106C24.237 4.52733 24.559 4.08867 25.0164 3.79C25.483 3.482 25.9964 3.328 26.5564 3.328C27.0604 3.328 27.5224 3.44933 27.9424 3.692C28.3717 3.93467 28.7124 4.27067 28.9644 4.7C29.2257 5.12 29.3564 5.596 29.3564 6.128V11H28.3064V6.534C28.3064 6.07667 28.2224 5.68933 28.0544 5.372C27.8957 5.05467 27.6764 4.812 27.3964 4.644C27.1164 4.46667 26.7944 4.378 26.4304 4.378C26.0757 4.378 25.7537 4.46667 25.4644 4.644C25.175 4.812 24.9464 5.05933 24.7784 5.386C24.6104 5.70333 24.5264 6.086 24.5264 6.534V11H23.4764V6.534C23.4764 6.07667 23.3924 5.68933 23.2244 5.372C23.0657 5.05467 22.8464 4.812 22.5664 4.644C22.2864 4.46667 21.9644 4.378 21.6004 4.378C21.2364 4.378 20.9097 4.46667 20.6204 4.644C20.3404 4.812 20.1164 5.05933 19.9484 5.386C19.7804 5.70333 19.6964 6.086 19.6964 6.534V11H18.6464ZM31.3612 11V3.496H32.4112V4.924L32.2432 4.714C32.4485 4.27533 32.7519 3.93467 33.1532 3.692C33.5639 3.44933 34.0119 3.328 34.4972 3.328C35.0759 3.328 35.5985 3.49133 36.0652 3.818C36.5319 4.14467 36.8632 4.56933 37.0592 5.092L36.7652 5.106C36.9519 4.52733 37.2739 4.08867 37.7312 3.79C38.1979 3.482 38.7112 3.328 39.2712 3.328C39.7752 3.328 40.2372 3.44933 40.6572 3.692C41.0865 3.93467 41.4272 4.27067 41.6792 4.7C41.9405 5.12 42.0712 5.596 42.0712 6.128V11H41.0212V6.534C41.0212 6.07667 40.9372 5.68933 40.7692 5.372C40.6105 5.05467 40.3912 4.812 40.1112 4.644C39.8312 4.46667 39.5092 4.378 39.1452 4.378C38.7905 4.378 38.4685 4.46667 38.1792 4.644C37.8899 4.812 37.6612 5.05933 37.4932 5.386C37.3252 5.70333 37.2412 6.086 37.2412 6.534V11H36.1912V6.534C36.1912 6.07667 36.1072 5.68933 35.9392 5.372C35.7805 5.05467 35.5612 4.812 35.2812 4.644C35.0012 4.46667 34.6792 4.378 34.3152 4.378C33.9512 4.378 33.6245 4.46667 33.3352 4.644C33.0552 4.812 32.8312 5.05933 32.6632 5.386C32.4952 5.70333 32.4112 6.086 32.4112 6.534V11H31.3612ZM46.736 11.168C46.2134 11.168 45.7374 11.0467 45.308 10.804C44.8787 10.552 44.538 10.2067 44.286 9.768C44.0434 9.32 43.922 8.80667 43.922 8.228V3.496H44.972V8.102C44.972 8.50333 45.0514 8.858 45.21 9.166C45.378 9.46467 45.6067 9.698 45.896 9.866C46.1947 10.034 46.5354 10.118 46.918 10.118C47.3007 10.118 47.6414 10.034 47.94 9.866C48.2387 9.68867 48.472 9.44133 48.64 9.124C48.808 8.79733 48.892 8.41 48.892 7.962V3.496H49.942V11H48.892V9.544L49.13 9.6C48.9527 10.0853 48.6494 10.468 48.22 10.748C47.7907 11.028 47.296 11.168 46.736 11.168ZM52.1014 11V3.496H53.1514V4.952L52.9134 4.896C53.1001 4.41067 53.4034 4.028 53.8234 3.748C54.2528 3.468 54.7474 3.328 55.3074 3.328C55.8394 3.328 56.3154 3.44933 56.7354 3.692C57.1648 3.93467 57.5008 4.27067 57.7434 4.7C57.9954 5.12 58.1214 5.596 58.1214 6.128V11H57.0714V6.534C57.0714 6.07667 56.9874 5.68933 56.8194 5.372C56.6608 5.05467 56.4321 4.812 56.1334 4.644C55.8441 4.46667 55.5081 4.378 55.1254 4.378C54.7428 4.378 54.4021 4.46667 54.1034 4.644C53.8048 4.812 53.5714 5.05933 53.4034 5.386C53.2354 5.70333 53.1514 6.086 53.1514 6.534V11H52.1014ZM60.1268 11V3.496H61.1768V11H60.1268ZM60.1268 2.11V0.569999H61.1768V2.11H60.1268ZM66.756 11.168C66.0187 11.168 65.37 10.9953 64.81 10.65C64.25 10.3047 63.8114 9.838 63.494 9.25C63.1767 8.65267 63.018 7.98067 63.018 7.234C63.018 6.48733 63.1767 5.82 63.494 5.232C63.8114 4.644 64.25 4.182 64.81 3.846C65.37 3.50067 66.0187 3.328 66.756 3.328C67.2227 3.328 67.6614 3.412 68.072 3.58C68.4827 3.748 68.8467 3.97667 69.164 4.266C69.4814 4.546 69.7194 4.87267 69.878 5.246L68.926 5.736C68.7394 5.33467 68.4547 5.008 68.072 4.756C67.6894 4.504 67.2507 4.378 66.756 4.378C66.2614 4.378 65.8134 4.504 65.412 4.756C65.02 4.99867 64.7074 5.33933 64.474 5.778C64.25 6.20733 64.138 6.69733 64.138 7.248C64.138 7.78933 64.25 8.27933 64.474 8.718C64.7074 9.14733 65.02 9.488 65.412 9.74C65.8134 9.992 66.2614 10.118 66.756 10.118C67.2507 10.118 67.6847 9.992 68.058 9.74C68.4407 9.488 68.73 9.152 68.926 8.732L69.878 9.25C69.7194 9.614 69.4814 9.94067 69.164 10.23C68.8467 10.5193 68.4827 10.748 68.072 10.916C67.6614 11.084 67.2227 11.168 66.756 11.168ZM73.7539 11.168C73.2779 11.168 72.8532 11.0793 72.4799 10.902C72.1065 10.7153 71.8125 10.4633 71.5979 10.146C71.3832 9.82867 71.2759 9.46467 71.2759 9.054C71.2759 8.662 71.3599 8.30733 71.5279 7.99C71.6959 7.66333 71.9572 7.388 72.3119 7.164C72.6665 6.94 73.1192 6.78133 73.6699 6.688L76.6099 6.198V7.15L73.9219 7.598C73.3805 7.69133 72.9885 7.864 72.7459 8.116C72.5125 8.368 72.3959 8.66667 72.3959 9.012C72.3959 9.348 72.5265 9.63267 72.7879 9.866C73.0585 10.0993 73.4039 10.216 73.8239 10.216C74.3372 10.216 74.7852 10.1087 75.1679 9.894C75.5505 9.67 75.8492 9.37133 76.0639 8.998C76.2785 8.62467 76.3859 8.20933 76.3859 7.752V5.848C76.3859 5.4 76.2225 5.036 75.8959 4.756C75.5692 4.476 75.1445 4.336 74.6219 4.336C74.1645 4.336 73.7632 4.45267 73.4179 4.686C73.0725 4.91 72.8159 5.204 72.6479 5.568L71.6959 5.05C71.8359 4.73267 72.0552 4.44333 72.3539 4.182C72.6619 3.92067 73.0119 3.71533 73.4039 3.566C73.7959 3.40733 74.2019 3.328 74.6219 3.328C75.1725 3.328 75.6579 3.43533 76.0779 3.65C76.5072 3.86467 76.8385 4.16333 77.0719 4.546C77.3145 4.91933 77.4359 5.35333 77.4359 5.848V11H76.3859V9.502L76.5399 9.656C76.4092 9.936 76.2039 10.1927 75.9239 10.426C75.6532 10.65 75.3312 10.832 74.9579 10.972C74.5939 11.1027 74.1925 11.168 73.7539 11.168ZM82.3289 11.084C81.6569 11.084 81.1389 10.888 80.7749 10.496C80.4109 10.104 80.2289 9.544 80.2289 8.816V4.546H78.8429V3.496H79.1929C79.5102 3.496 79.7622 3.39333 79.9489 3.188C80.1355 2.97333 80.2289 2.70733 80.2289 2.39V1.76H81.2789V3.496H82.9309V4.546H81.2789V8.816C81.2789 9.068 81.3162 9.292 81.3909 9.488C81.4655 9.67467 81.5915 9.824 81.7689 9.936C81.9555 10.048 82.2029 10.104 82.5109 10.104C82.5855 10.104 82.6742 10.0993 82.7769 10.09C82.8795 10.0807 82.9682 10.0713 83.0429 10.062V11C82.9309 11.028 82.8049 11.0467 82.6649 11.056C82.5249 11.0747 82.4129 11.084 82.3289 11.084ZM84.8866 11V3.496H85.9366V11H84.8866ZM84.8866 2.11V0.569999H85.9366V2.11H84.8866ZM91.5998 11.168C90.8905 11.168 90.2465 11 89.6678 10.664C89.0891 10.3187 88.6271 9.852 88.2818 9.264C87.9458 8.66667 87.7778 7.99 87.7778 7.234C87.7778 6.48733 87.9458 5.82 88.2818 5.232C88.6178 4.644 89.0705 4.182 89.6398 3.846C90.2185 3.50067 90.8718 3.328 91.5998 3.328C92.3278 3.328 92.9765 3.496 93.5458 3.832C94.1245 4.168 94.5771 4.63 94.9038 5.218C95.2398 5.806 95.4078 6.478 95.4078 7.234C95.4078 7.99933 95.2351 8.68067 94.8898 9.278C94.5445 9.866 94.0825 10.328 93.5038 10.664C92.9345 11 92.2998 11.168 91.5998 11.168ZM91.5998 10.118C92.1038 10.118 92.5565 9.992 92.9578 9.74C93.3685 9.488 93.6905 9.14267 93.9238 8.704C94.1665 8.26533 94.2878 7.77533 94.2878 7.234C94.2878 6.69267 94.1665 6.20733 93.9238 5.778C93.6905 5.34867 93.3685 5.008 92.9578 4.756C92.5565 4.504 92.1038 4.378 91.5998 4.378C91.0958 4.378 90.6385 4.504 90.2278 4.756C89.8265 5.008 89.5045 5.34867 89.2618 5.778C89.0191 6.20733 88.8978 6.69267 88.8978 7.234C88.8978 7.77533 89.0191 8.26533 89.2618 8.704C89.5045 9.14267 89.8265 9.488 90.2278 9.74C90.6385 9.992 91.0958 10.118 91.5998 10.118ZM97.2596 11V3.496H98.3096V4.952L98.0716 4.896C98.2583 4.41067 98.5616 4.028 98.9816 3.748C99.411 3.468 99.9056 3.328 100.466 3.328C100.998 3.328 101.474 3.44933 101.894 3.692C102.323 3.93467 102.659 4.27067 102.902 4.7C103.154 5.12 103.28 5.596 103.28 6.128V11H102.23V6.534C102.23 6.07667 102.146 5.68933 101.978 5.372C101.819 5.05467 101.59 4.812 101.292 4.644C101.002 4.46667 100.666 4.378 100.284 4.378C99.901 4.378 99.5603 4.46667 99.2616 4.644C98.963 4.812 98.7296 5.05933 98.5616 5.386C98.3936 5.70333 98.3096 6.086 98.3096 6.534V11H97.2596ZM107.889 11.168C107.17 11.168 106.54 10.986 105.999 10.622C105.458 10.258 105.066 9.76333 104.823 9.138L105.705 8.718C105.92 9.17533 106.218 9.53933 106.601 9.81C106.993 10.0807 107.422 10.216 107.889 10.216C108.337 10.216 108.715 10.1087 109.023 9.894C109.331 9.67 109.485 9.38067 109.485 9.026C109.485 8.76467 109.41 8.55933 109.261 8.41C109.112 8.25133 108.939 8.13 108.743 8.046C108.547 7.962 108.374 7.90133 108.225 7.864L107.147 7.556C106.456 7.36 105.957 7.08467 105.649 6.73C105.341 6.37533 105.187 5.96467 105.187 5.498C105.187 5.05933 105.299 4.67667 105.523 4.35C105.747 4.02333 106.05 3.77133 106.433 3.594C106.816 3.41667 107.24 3.328 107.707 3.328C108.342 3.328 108.916 3.496 109.429 3.832C109.952 4.15867 110.32 4.616 110.535 5.204L109.639 5.624C109.452 5.204 109.182 4.87733 108.827 4.644C108.482 4.40133 108.094 4.28 107.665 4.28C107.245 4.28 106.909 4.38733 106.657 4.602C106.405 4.81667 106.279 5.08733 106.279 5.414C106.279 5.666 106.344 5.86667 106.475 6.016C106.606 6.16533 106.755 6.27733 106.923 6.352C107.1 6.42667 107.254 6.48267 107.385 6.52L108.631 6.884C109.238 7.06133 109.709 7.33667 110.045 7.71C110.39 8.08333 110.563 8.522 110.563 9.026C110.563 9.43667 110.446 9.80533 110.213 10.132C109.989 10.4587 109.676 10.7153 109.275 10.902C108.874 11.0793 108.412 11.168 107.889 11.168ZM112.772 11V9.46H113.892V11H112.772ZM116.414 11V3.496H117.464V4.924L117.296 4.714C117.501 4.27533 117.805 3.93467 118.206 3.692C118.617 3.44933 119.065 3.328 119.55 3.328C120.129 3.328 120.651 3.49133 121.118 3.818C121.585 4.14467 121.916 4.56933 122.112 5.092L121.818 5.106C122.005 4.52733 122.327 4.08867 122.784 3.79C123.251 3.482 123.764 3.328 124.324 3.328C124.828 3.328 125.29 3.44933 125.71 3.692C126.139 3.93467 126.48 4.27067 126.732 4.7C126.993 5.12 127.124 5.596 127.124 6.128V11H126.074V6.534C126.074 6.07667 125.99 5.68933 125.822 5.372C125.663 5.05467 125.444 4.812 125.164 4.644C124.884 4.46667 124.562 4.378 124.198 4.378C123.843 4.378 123.521 4.46667 123.232 4.644C122.943 4.812 122.714 5.05933 122.546 5.386C122.378 5.70333 122.294 6.086 122.294 6.534V11H121.244V6.534C121.244 6.07667 121.16 5.68933 120.992 5.372C120.833 5.05467 120.614 4.812 120.334 4.644C120.054 4.46667 119.732 4.378 119.368 4.378C119.004 4.378 118.677 4.46667 118.388 4.644C118.108 4.812 117.884 5.05933 117.716 5.386C117.548 5.70333 117.464 6.086 117.464 6.534V11H116.414ZM129.129 11V0.402H130.179V7.822L129.731 7.752L133.945 3.496H135.303L132.363 6.506L135.569 11H134.309L131.299 6.842L131.971 6.898L129.829 9.11L130.179 8.242V11H129.129ZM136.799 13.8V3.496H137.849V5.176L137.681 4.882C137.979 4.406 138.376 4.028 138.871 3.748C139.375 3.468 139.949 3.328 140.593 3.328C141.302 3.328 141.932 3.50067 142.483 3.846C143.043 4.182 143.481 4.644 143.799 5.232C144.125 5.82 144.289 6.492 144.289 7.248C144.289 7.99467 144.125 8.66667 143.799 9.264C143.481 9.852 143.043 10.3187 142.483 10.664C141.932 11 141.302 11.168 140.593 11.168C139.949 11.168 139.365 11.0233 138.843 10.734C138.329 10.4353 137.942 10.0153 137.681 9.474L137.849 9.32V13.8H136.799ZM140.537 10.118C141.041 10.118 141.489 9.992 141.881 9.74C142.282 9.488 142.595 9.14733 142.819 8.718C143.052 8.27933 143.169 7.78933 143.169 7.248C143.169 6.69733 143.052 6.20733 142.819 5.778C142.595 5.34867 142.282 5.008 141.881 4.756C141.489 4.504 141.041 4.378 140.537 4.378C140.033 4.378 139.575 4.504 139.165 4.756C138.763 5.008 138.441 5.35333 138.199 5.792C137.965 6.22133 137.849 6.70667 137.849 7.248C137.849 7.78933 137.965 8.27933 138.199 8.718C138.441 9.14733 138.763 9.488 139.165 9.74C139.575 9.992 140.033 10.118 140.537 10.118ZM146.137 11V3.496H147.187V4.924L147.019 4.714C147.224 4.27533 147.527 3.93467 147.929 3.692C148.339 3.44933 148.787 3.328 149.273 3.328C149.851 3.328 150.374 3.49133 150.841 3.818C151.307 4.14467 151.639 4.56933 151.835 5.092L151.541 5.106C151.727 4.52733 152.049 4.08867 152.507 3.79C152.973 3.482 153.487 3.328 154.047 3.328C154.551 3.328 155.013 3.44933 155.433 3.692C155.862 3.93467 156.203 4.27067 156.455 4.7C156.716 5.12 156.847 5.596 156.847 6.128V11H155.797V6.534C155.797 6.07667 155.713 5.68933 155.545 5.372C155.386 5.05467 155.167 4.812 154.887 4.644C154.607 4.46667 154.285 4.378 153.921 4.378C153.566 4.378 153.244 4.46667 152.955 4.644C152.665 4.812 152.437 5.05933 152.269 5.386C152.101 5.70333 152.017 6.086 152.017 6.534V11H150.967V6.534C150.967 6.07667 150.883 5.68933 150.715 5.372C150.556 5.05467 150.337 4.812 150.057 4.644C149.777 4.46667 149.455 4.378 149.091 4.378C148.727 4.378 148.4 4.46667 148.111 4.644C147.831 4.812 147.607 5.05933 147.439 5.386C147.271 5.70333 147.187 6.086 147.187 6.534V11H146.137ZM161.511 11.168C160.989 11.168 160.513 11.0467 160.083 10.804C159.654 10.552 159.313 10.2067 159.061 9.768C158.819 9.32 158.697 8.80667 158.697 8.228V3.496H159.747V8.102C159.747 8.50333 159.827 8.858 159.985 9.166C160.153 9.46467 160.382 9.698 160.671 9.866C160.97 10.034 161.311 10.118 161.693 10.118C162.076 10.118 162.417 10.034 162.715 9.866C163.014 9.68867 163.247 9.44133 163.415 9.124C163.583 8.79733 163.667 8.41 163.667 7.962V3.496H164.717V11H163.667V9.544L163.905 9.6C163.728 10.0853 163.425 10.468 162.995 10.748C162.566 11.028 162.071 11.168 161.511 11.168ZM172.547 13.898C171.725 13.898 170.96 13.7487 170.251 13.45C169.551 13.1607 168.935 12.75 168.403 12.218C167.871 11.686 167.455 11.07 167.157 10.37C166.867 9.66067 166.723 8.9 166.723 8.088C166.723 7.276 166.872 6.52 167.171 5.82C167.469 5.12 167.88 4.50867 168.403 3.986C168.935 3.46333 169.555 3.05733 170.265 2.768C170.974 2.46933 171.735 2.32 172.547 2.32C173.387 2.32 174.161 2.47867 174.871 2.796C175.58 3.104 176.191 3.52867 176.705 4.07C177.227 4.602 177.629 5.20867 177.909 5.89C178.198 6.57133 178.343 7.28533 178.343 8.032C178.343 8.62 178.249 9.138 178.063 9.586C177.885 10.0247 177.624 10.37 177.279 10.622C176.933 10.874 176.518 11 176.033 11C175.743 11 175.468 10.9487 175.207 10.846C174.945 10.734 174.721 10.58 174.535 10.384C174.357 10.1787 174.236 9.936 174.171 9.656L174.395 9.838C174.245 10.09 174.059 10.3047 173.835 10.482C173.62 10.65 173.377 10.7807 173.107 10.874C172.836 10.958 172.542 11 172.225 11C171.683 11 171.193 10.8693 170.755 10.608C170.325 10.3467 169.985 9.992 169.733 9.544C169.481 9.096 169.355 8.58733 169.355 8.018C169.355 7.44867 169.481 6.94 169.733 6.492C169.985 6.044 170.325 5.68933 170.755 5.428C171.193 5.15733 171.683 5.022 172.225 5.022C172.682 5.022 173.097 5.11533 173.471 5.302C173.853 5.48867 174.157 5.75 174.381 6.086L174.283 6.254V5.162H175.193V9.026C175.193 9.37133 175.267 9.62333 175.417 9.782C175.575 9.94067 175.785 10.02 176.047 10.02C176.439 10.02 176.742 9.85667 176.957 9.53C177.181 9.20333 177.293 8.71333 177.293 8.06C177.293 7.388 177.176 6.76267 176.943 6.184C176.709 5.60533 176.383 5.10133 175.963 4.672C175.543 4.24267 175.043 3.90667 174.465 3.664C173.886 3.42133 173.247 3.3 172.547 3.3C171.865 3.3 171.231 3.42133 170.643 3.664C170.064 3.89733 169.56 4.22867 169.131 4.658C168.701 5.08733 168.365 5.59133 168.123 6.17C167.889 6.74867 167.773 7.38333 167.773 8.074C167.773 8.746 167.885 9.376 168.109 9.964C168.342 10.5427 168.669 11.0513 169.089 11.49C169.518 11.938 170.027 12.288 170.615 12.54C171.203 12.792 171.856 12.918 172.575 12.918C172.995 12.918 173.401 12.8713 173.793 12.778C174.185 12.694 174.539 12.5633 174.857 12.386L175.305 13.226C174.511 13.674 173.592 13.898 172.547 13.898ZM172.267 10.02C172.631 10.02 172.953 9.93133 173.233 9.754C173.513 9.57667 173.732 9.33867 173.891 9.04C174.059 8.732 174.143 8.38667 174.143 8.004C174.143 7.42533 173.965 6.954 173.611 6.59C173.256 6.21667 172.808 6.03 172.267 6.03C171.912 6.03 171.59 6.11867 171.301 6.296C171.021 6.464 170.801 6.69733 170.643 6.996C170.484 7.29467 170.405 7.63533 170.405 8.018C170.405 8.39133 170.484 8.732 170.643 9.04C170.811 9.33867 171.035 9.57667 171.315 9.754C171.595 9.93133 171.912 10.02 172.267 10.02ZM183.435 14.08C182.921 14.08 182.445 14.0007 182.007 13.842C181.577 13.6833 181.204 13.464 180.887 13.184C180.579 12.9133 180.341 12.596 180.173 12.232L181.139 11.714C181.288 12.0687 181.554 12.3767 181.937 12.638C182.319 12.8993 182.809 13.03 183.407 13.03C183.864 13.03 184.284 12.9413 184.667 12.764C185.049 12.5867 185.357 12.3253 185.591 11.98C185.824 11.6347 185.941 11.21 185.941 10.706V9.04L186.109 9.194C185.847 9.73533 185.46 10.1553 184.947 10.454C184.433 10.7433 183.873 10.888 183.267 10.888C182.567 10.888 181.937 10.72 181.377 10.384C180.817 10.048 180.373 9.59533 180.047 9.026C179.729 8.44733 179.571 7.808 179.571 7.108C179.571 6.39867 179.729 5.75933 180.047 5.19C180.373 4.62067 180.812 4.168 181.363 3.832C181.923 3.496 182.557 3.328 183.267 3.328C183.873 3.328 184.424 3.468 184.919 3.748C185.423 4.028 185.819 4.406 186.109 4.882L185.941 5.176V3.496H186.991V10.706C186.991 11.35 186.837 11.924 186.529 12.428C186.23 12.9413 185.81 13.3427 185.269 13.632C184.737 13.9307 184.125 14.08 183.435 14.08ZM183.323 9.838C183.808 9.838 184.247 9.71667 184.639 9.474C185.031 9.222 185.343 8.89067 185.577 8.48C185.819 8.06 185.941 7.60267 185.941 7.108C185.941 6.61333 185.819 6.16067 185.577 5.75C185.343 5.33 185.031 4.99867 184.639 4.756C184.247 4.504 183.808 4.378 183.323 4.378C182.828 4.378 182.38 4.504 181.979 4.756C181.577 4.99867 181.26 5.32533 181.027 5.736C180.803 6.14667 180.691 6.604 180.691 7.108C180.691 7.60267 180.803 8.06 181.027 8.48C181.26 8.89067 181.573 9.222 181.965 9.474C182.366 9.71667 182.819 9.838 183.323 9.838ZM189.148 11V3.496H190.198V4.924L190.03 4.714C190.236 4.27533 190.539 3.93467 190.94 3.692C191.351 3.44933 191.799 3.328 192.284 3.328C192.863 3.328 193.386 3.49133 193.852 3.818C194.319 4.14467 194.65 4.56933 194.846 5.092L194.552 5.106C194.739 4.52733 195.061 4.08867 195.518 3.79C195.985 3.482 196.498 3.328 197.058 3.328C197.562 3.328 198.024 3.44933 198.444 3.692C198.874 3.93467 199.214 4.27067 199.466 4.7C199.728 5.12 199.858 5.596 199.858 6.128V11H198.808V6.534C198.808 6.07667 198.724 5.68933 198.556 5.372C198.398 5.05467 198.178 4.812 197.898 4.644C197.618 4.46667 197.296 4.378 196.932 4.378C196.578 4.378 196.256 4.46667 195.966 4.644C195.677 4.812 195.448 5.05933 195.28 5.386C195.112 5.70333 195.028 6.086 195.028 6.534V11H193.978V6.534C193.978 6.07667 193.894 5.68933 193.726 5.372C193.568 5.05467 193.348 4.812 193.068 4.644C192.788 4.46667 192.466 4.378 192.102 4.378C191.738 4.378 191.412 4.46667 191.122 4.644C190.842 4.812 190.618 5.05933 190.45 5.386C190.282 5.70333 190.198 6.086 190.198 6.534V11H189.148ZM204.033 11.168C203.557 11.168 203.132 11.0793 202.759 10.902C202.386 10.7153 202.092 10.4633 201.877 10.146C201.662 9.82867 201.555 9.46467 201.555 9.054C201.555 8.662 201.639 8.30733 201.807 7.99C201.975 7.66333 202.236 7.388 202.591 7.164C202.946 6.94 203.398 6.78133 203.949 6.688L206.889 6.198V7.15L204.201 7.598C203.66 7.69133 203.268 7.864 203.025 8.116C202.792 8.368 202.675 8.66667 202.675 9.012C202.675 9.348 202.806 9.63267 203.067 9.866C203.338 10.0993 203.683 10.216 204.103 10.216C204.616 10.216 205.064 10.1087 205.447 9.894C205.83 9.67 206.128 9.37133 206.343 8.998C206.558 8.62467 206.665 8.20933 206.665 7.752V5.848C206.665 5.4 206.502 5.036 206.175 4.756C205.848 4.476 205.424 4.336 204.901 4.336C204.444 4.336 204.042 4.45267 203.697 4.686C203.352 4.91 203.095 5.204 202.927 5.568L201.975 5.05C202.115 4.73267 202.334 4.44333 202.633 4.182C202.941 3.92067 203.291 3.71533 203.683 3.566C204.075 3.40733 204.481 3.328 204.901 3.328C205.452 3.328 205.937 3.43533 206.357 3.65C206.786 3.86467 207.118 4.16333 207.351 4.546C207.594 4.91933 207.715 5.35333 207.715 5.848V11H206.665V9.502L206.819 9.656C206.688 9.936 206.483 10.1927 206.203 10.426C205.932 10.65 205.61 10.832 205.237 10.972C204.873 11.1027 204.472 11.168 204.033 11.168ZM209.875 11V3.496H210.925V11H209.875ZM209.875 2.11V0.569999H210.925V2.11H209.875ZM213.074 11V0.402H214.124V11H213.074ZM216.637 11V9.46H217.757V11H216.637ZM223.709 11.168C222.972 11.168 222.323 10.9953 221.763 10.65C221.203 10.3047 220.765 9.838 220.447 9.25C220.13 8.65267 219.971 7.98067 219.971 7.234C219.971 6.48733 220.13 5.82 220.447 5.232C220.765 4.644 221.203 4.182 221.763 3.846C222.323 3.50067 222.972 3.328 223.709 3.328C224.176 3.328 224.615 3.412 225.025 3.58C225.436 3.748 225.8 3.97667 226.117 4.266C226.435 4.546 226.673 4.87267 226.831 5.246L225.879 5.736C225.693 5.33467 225.408 5.008 225.025 4.756C224.643 4.504 224.204 4.378 223.709 4.378C223.215 4.378 222.767 4.504 222.365 4.756C221.973 4.99867 221.661 5.33933 221.427 5.778C221.203 6.20733 221.091 6.69733 221.091 7.248C221.091 7.78933 221.203 8.27933 221.427 8.718C221.661 9.14733 221.973 9.488 222.365 9.74C222.767 9.992 223.215 10.118 223.709 10.118C224.204 10.118 224.638 9.992 225.011 9.74C225.394 9.488 225.683 9.152 225.879 8.732L226.831 9.25C226.673 9.614 226.435 9.94067 226.117 10.23C225.8 10.5193 225.436 10.748 225.025 10.916C224.615 11.084 224.176 11.168 223.709 11.168ZM232.188 11.168C231.478 11.168 230.834 11 230.256 10.664C229.677 10.3187 229.215 9.852 228.87 9.264C228.534 8.66667 228.366 7.99 228.366 7.234C228.366 6.48733 228.534 5.82 228.87 5.232C229.206 4.644 229.658 4.182 230.228 3.846C230.806 3.50067 231.46 3.328 232.188 3.328C232.916 3.328 233.564 3.496 234.134 3.832C234.712 4.168 235.165 4.63 235.492 5.218C235.828 5.806 235.996 6.478 235.996 7.234C235.996 7.99933 235.823 8.68067 235.478 9.278C235.132 9.866 234.67 10.328 234.092 10.664C233.522 11 232.888 11.168 232.188 11.168ZM232.188 10.118C232.692 10.118 233.144 9.992 233.546 9.74C233.956 9.488 234.278 9.14267 234.512 8.704C234.754 8.26533 234.876 7.77533 234.876 7.234C234.876 6.69267 234.754 6.20733 234.512 5.778C234.278 5.34867 233.956 5.008 233.546 4.756C233.144 4.504 232.692 4.378 232.188 4.378C231.684 4.378 231.226 4.504 230.816 4.756C230.414 5.008 230.092 5.34867 229.85 5.778C229.607 6.20733 229.486 6.69267 229.486 7.234C229.486 7.77533 229.607 8.26533 229.85 8.704C230.092 9.14267 230.414 9.488 230.816 9.74C231.226 9.992 231.684 10.118 232.188 10.118ZM237.848 11V3.496H238.898V4.924L238.73 4.714C238.935 4.27533 239.238 3.93467 239.64 3.692C240.05 3.44933 240.498 3.328 240.984 3.328C241.562 3.328 242.085 3.49133 242.552 3.818C243.018 4.14467 243.35 4.56933 243.546 5.092L243.252 5.106C243.438 4.52733 243.76 4.08867 244.218 3.79C244.684 3.482 245.198 3.328 245.758 3.328C246.262 3.328 246.724 3.44933 247.144 3.692C247.573 3.93467 247.914 4.27067 248.166 4.7C248.427 5.12 248.558 5.596 248.558 6.128V11H247.508V6.534C247.508 6.07667 247.424 5.68933 247.256 5.372C247.097 5.05467 246.878 4.812 246.598 4.644C246.318 4.46667 245.996 4.378 245.632 4.378C245.277 4.378 244.955 4.46667 244.666 4.644C244.376 4.812 244.148 5.05933 243.98 5.386C243.812 5.70333 243.728 6.086 243.728 6.534V11H242.678V6.534C242.678 6.07667 242.594 5.68933 242.426 5.372C242.267 5.05467 242.048 4.812 241.768 4.644C241.488 4.46667 241.166 4.378 240.802 4.378C240.438 4.378 240.111 4.46667 239.822 4.644C239.542 4.812 239.318 5.05933 239.15 5.386C238.982 5.70333 238.898 6.086 238.898 6.534V11H237.848Z" fill="black"/>
</svg>
