<svg width="287" height="15" viewBox="0 0 287 15" fill="none" xmlns="http://www.w3.org/2000/svg">
<path d="M4.508 11.168C3.77067 11.168 3.122 10.9953 2.562 10.65C2.002 10.3047 1.56333 9.838 1.246 9.25C0.928667 8.65267 0.77 7.98067 0.77 7.234C0.77 6.48733 0.928667 5.82 1.246 5.232C1.56333 4.644 2.002 4.182 2.562 3.846C3.122 3.50067 3.77067 3.328 4.508 3.328C4.97467 3.328 5.41333 3.412 5.824 3.58C6.23467 3.748 6.59867 3.97667 6.916 4.266C7.23333 4.546 7.47133 4.87267 7.63 5.246L6.678 5.736C6.49133 5.33467 6.20667 5.008 5.824 4.756C5.44133 4.504 5.00267 4.378 4.508 4.378C4.01333 4.378 3.56533 4.504 3.164 4.756C2.772 4.99867 2.45933 5.33933 2.226 5.778C2.002 6.20733 1.89 6.69733 1.89 7.248C1.89 7.78933 2.002 8.27933 2.226 8.718C2.45933 9.14733 2.772 9.488 3.164 9.74C3.56533 9.992 4.01333 10.118 4.508 10.118C5.00267 10.118 5.43667 9.992 5.81 9.74C6.19267 9.488 6.482 9.152 6.678 8.732L7.63 9.25C7.47133 9.614 7.23333 9.94067 6.916 10.23C6.59867 10.5193 6.23467 10.748 5.824 10.916C5.41333 11.084 4.97467 11.168 4.508 11.168ZM12.9865 11.168C12.2772 11.168 11.6332 11 11.0545 10.664C10.4759 10.3187 10.0139 9.852 9.66853 9.264C9.33253 8.66667 9.16453 7.99 9.16453 7.234C9.16453 6.48733 9.33253 5.82 9.66853 5.232C10.0045 4.644 10.4572 4.182 11.0265 3.846C11.6052 3.50067 12.2585 3.328 12.9865 3.328C13.7145 3.328 14.3632 3.496 14.9325 3.832C15.5112 4.168 15.9639 4.63 16.2905 5.218C16.6265 5.806 16.7945 6.478 16.7945 7.234C16.7945 7.99933 16.6219 8.68067 16.2765 9.278C15.9312 9.866 15.4692 10.328 14.8905 10.664C14.3212 11 13.6865 11.168 12.9865 11.168ZM12.9865 10.118C13.4905 10.118 13.9432 9.992 14.3445 9.74C14.7552 9.488 15.0772 9.14267 15.3105 8.704C15.5532 8.26533 15.6745 7.77533 15.6745 7.234C15.6745 6.69267 15.5532 6.20733 15.3105 5.778C15.0772 5.34867 14.7552 5.008 14.3445 4.756C13.9432 4.504 13.4905 4.378 12.9865 4.378C12.4825 4.378 12.0252 4.504 11.6145 4.756C11.2132 5.008 10.8912 5.34867 10.6485 5.778C10.4059 6.20733 10.2845 6.69267 10.2845 7.234C10.2845 7.77533 10.4059 8.26533 10.6485 8.704C10.8912 9.14267 11.2132 9.488 11.6145 9.74C12.0252 9.992 12.4825 10.118 12.9865 10.118ZM18.6464 11V3.496H19.6964V4.924L19.5284 4.714C19.7337 4.27533 20.037 3.93467 20.4384 3.692C20.849 3.44933 21.297 3.328 21.7824 3.328C22.361 3.328 22.8837 3.49133 23.3504 3.818C23.817 4.14467 24.1484 4.56933 24.3444 5.092L24.0504 5.106C24.237 4.52733 24.559 4.08867 25.0164 3.79C25.483 3.482 25.9964 3.328 26.5564 3.328C27.0604 3.328 27.5224 3.44933 27.9424 3.692C28.3717 3.93467 28.7124 4.27067 28.9644 4.7C29.2257 5.12 29.3564 5.596 29.3564 6.128V11H28.3064V6.534C28.3064 6.07667 28.2224 5.68933 28.0544 5.372C27.8957 5.05467 27.6764 4.812 27.3964 4.644C27.1164 4.46667 26.7944 4.378 26.4304 4.378C26.0757 4.378 25.7537 4.46667 25.4644 4.644C25.175 4.812 24.9464 5.05933 24.7784 5.386C24.6104 5.70333 24.5264 6.086 24.5264 6.534V11H23.4764V6.534C23.4764 6.07667 23.3924 5.68933 23.2244 5.372C23.0657 5.05467 22.8464 4.812 22.5664 4.644C22.2864 4.46667 21.9644 4.378 21.6004 4.378C21.2364 4.378 20.9097 4.46667 20.6204 4.644C20.3404 4.812 20.1164 5.05933 19.9484 5.386C19.7804 5.70333 19.6964 6.086 19.6964 6.534V11H18.6464ZM31.3612 11V3.496H32.4112V4.924L32.2432 4.714C32.4485 4.27533 32.7519 3.93467 33.1532 3.692C33.5639 3.44933 34.0119 3.328 34.4972 3.328C35.0759 3.328 35.5985 3.49133 36.0652 3.818C36.5319 4.14467 36.8632 4.56933 37.0592 5.092L36.7652 5.106C36.9519 4.52733 37.2739 4.08867 37.7312 3.79C38.1979 3.482 38.7112 3.328 39.2712 3.328C39.7752 3.328 40.2372 3.44933 40.6572 3.692C41.0865 3.93467 41.4272 4.27067 41.6792 4.7C41.9405 5.12 42.0712 5.596 42.0712 6.128V11H41.0212V6.534C41.0212 6.07667 40.9372 5.68933 40.7692 5.372C40.6105 5.05467 40.3912 4.812 40.1112 4.644C39.8312 4.46667 39.5092 4.378 39.1452 4.378C38.7905 4.378 38.4685 4.46667 38.1792 4.644C37.8899 4.812 37.6612 5.05933 37.4932 5.386C37.3252 5.70333 37.2412 6.086 37.2412 6.534V11H36.1912V6.534C36.1912 6.07667 36.1072 5.68933 35.9392 5.372C35.7805 5.05467 35.5612 4.812 35.2812 4.644C35.0012 4.46667 34.6792 4.378 34.3152 4.378C33.9512 4.378 33.6245 4.46667 33.3352 4.644C33.0552 4.812 32.8312 5.05933 32.6632 5.386C32.4952 5.70333 32.4112 6.086 32.4112 6.534V11H31.3612ZM46.736 11.168C46.2134 11.168 45.7374 11.0467 45.308 10.804C44.8787 10.552 44.538 10.2067 44.286 9.768C44.0434 9.32 43.922 8.80667 43.922 8.228V3.496H44.972V8.102C44.972 8.50333 45.0514 8.858 45.21 9.166C45.378 9.46467 45.6067 9.698 45.896 9.866C46.1947 10.034 46.5354 10.118 46.918 10.118C47.3007 10.118 47.6414 10.034 47.94 9.866C48.2387 9.68867 48.472 9.44133 48.64 9.124C48.808 8.79733 48.892 8.41 48.892 7.962V3.496H49.942V11H48.892V9.544L49.13 9.6C48.9527 10.0853 48.6494 10.468 48.22 10.748C47.7907 11.028 47.296 11.168 46.736 11.168ZM52.1014 11V3.496H53.1514V4.952L52.9134 4.896C53.1001 4.41067 53.4034 4.028 53.8234 3.748C54.2528 3.468 54.7474 3.328 55.3074 3.328C55.8394 3.328 56.3154 3.44933 56.7354 3.692C57.1648 3.93467 57.5008 4.27067 57.7434 4.7C57.9954 5.12 58.1214 5.596 58.1214 6.128V11H57.0714V6.534C57.0714 6.07667 56.9874 5.68933 56.8194 5.372C56.6608 5.05467 56.4321 4.812 56.1334 4.644C55.8441 4.46667 55.5081 4.378 55.1254 4.378C54.7428 4.378 54.4021 4.46667 54.1034 4.644C53.8048 4.812 53.5714 5.05933 53.4034 5.386C53.2354 5.70333 53.1514 6.086 53.1514 6.534V11H52.1014ZM60.1268 11V3.496H61.1768V11H60.1268ZM60.1268 2.11V0.569999H61.1768V2.11H60.1268ZM66.756 11.168C66.0187 11.168 65.37 10.9953 64.81 10.65C64.25 10.3047 63.8114 9.838 63.494 9.25C63.1767 8.65267 63.018 7.98067 63.018 7.234C63.018 6.48733 63.1767 5.82 63.494 5.232C63.8114 4.644 64.25 4.182 64.81 3.846C65.37 3.50067 66.0187 3.328 66.756 3.328C67.2227 3.328 67.6614 3.412 68.072 3.58C68.4827 3.748 68.8467 3.97667 69.164 4.266C69.4814 4.546 69.7194 4.87267 69.878 5.246L68.926 5.736C68.7394 5.33467 68.4547 5.008 68.072 4.756C67.6894 4.504 67.2507 4.378 66.756 4.378C66.2614 4.378 65.8134 4.504 65.412 4.756C65.02 4.99867 64.7074 5.33933 64.474 5.778C64.25 6.20733 64.138 6.69733 64.138 7.248C64.138 7.78933 64.25 8.27933 64.474 8.718C64.7074 9.14733 65.02 9.488 65.412 9.74C65.8134 9.992 66.2614 10.118 66.756 10.118C67.2507 10.118 67.6847 9.992 68.058 9.74C68.4407 9.488 68.73 9.152 68.926 8.732L69.878 9.25C69.7194 9.614 69.4814 9.94067 69.164 10.23C68.8467 10.5193 68.4827 10.748 68.072 10.916C67.6614 11.084 67.2227 11.168 66.756 11.168ZM73.7539 11.168C73.2779 11.168 72.8532 11.0793 72.4799 10.902C72.1065 10.7153 71.8125 10.4633 71.5979 10.146C71.3832 9.82867 71.2759 9.46467 71.2759 9.054C71.2759 8.662 71.3599 8.30733 71.5279 7.99C71.6959 7.66333 71.9572 7.388 72.3119 7.164C72.6665 6.94 73.1192 6.78133 73.6699 6.688L76.6099 6.198V7.15L73.9219 7.598C73.3805 7.69133 72.9885 7.864 72.7459 8.116C72.5125 8.368 72.3959 8.66667 72.3959 9.012C72.3959 9.348 72.5265 9.63267 72.7879 9.866C73.0585 10.0993 73.4039 10.216 73.8239 10.216C74.3372 10.216 74.7852 10.1087 75.1679 9.894C75.5505 9.67 75.8492 9.37133 76.0639 8.998C76.2785 8.62467 76.3859 8.20933 76.3859 7.752V5.848C76.3859 5.4 76.2225 5.036 75.8959 4.756C75.5692 4.476 75.1445 4.336 74.6219 4.336C74.1645 4.336 73.7632 4.45267 73.4179 4.686C73.0725 4.91 72.8159 5.204 72.6479 5.568L71.6959 5.05C71.8359 4.73267 72.0552 4.44333 72.3539 4.182C72.6619 3.92067 73.0119 3.71533 73.4039 3.566C73.7959 3.40733 74.2019 3.328 74.6219 3.328C75.1725 3.328 75.6579 3.43533 76.0779 3.65C76.5072 3.86467 76.8385 4.16333 77.0719 4.546C77.3145 4.91933 77.4359 5.35333 77.4359 5.848V11H76.3859V9.502L76.5399 9.656C76.4092 9.936 76.2039 10.1927 75.9239 10.426C75.6532 10.65 75.3312 10.832 74.9579 10.972C74.5939 11.1027 74.1925 11.168 73.7539 11.168ZM82.3289 11.084C81.6569 11.084 81.1389 10.888 80.7749 10.496C80.4109 10.104 80.2289 9.544 80.2289 8.816V4.546H78.8429V3.496H79.1929C79.5102 3.496 79.7622 3.39333 79.9489 3.188C80.1355 2.97333 80.2289 2.70733 80.2289 2.39V1.76H81.2789V3.496H82.9309V4.546H81.2789V8.816C81.2789 9.068 81.3162 9.292 81.3909 9.488C81.4655 9.67467 81.5915 9.824 81.7689 9.936C81.9555 10.048 82.2029 10.104 82.5109 10.104C82.5855 10.104 82.6742 10.0993 82.7769 10.09C82.8795 10.0807 82.9682 10.0713 83.0429 10.062V11C82.9309 11.028 82.8049 11.0467 82.6649 11.056C82.5249 11.0747 82.4129 11.084 82.3289 11.084ZM84.8866 11V3.496H85.9366V11H84.8866ZM84.8866 2.11V0.569999H85.9366V2.11H84.8866ZM91.5998 11.168C90.8905 11.168 90.2465 11 89.6678 10.664C89.0891 10.3187 88.6271 9.852 88.2818 9.264C87.9458 8.66667 87.7778 7.99 87.7778 7.234C87.7778 6.48733 87.9458 5.82 88.2818 5.232C88.6178 4.644 89.0705 4.182 89.6398 3.846C90.2185 3.50067 90.8718 3.328 91.5998 3.328C92.3278 3.328 92.9765 3.496 93.5458 3.832C94.1245 4.168 94.5771 4.63 94.9038 5.218C95.2398 5.806 95.4078 6.478 95.4078 7.234C95.4078 7.99933 95.2351 8.68067 94.8898 9.278C94.5445 9.866 94.0825 10.328 93.5038 10.664C92.9345 11 92.2998 11.168 91.5998 11.168ZM91.5998 10.118C92.1038 10.118 92.5565 9.992 92.9578 9.74C93.3685 9.488 93.6905 9.14267 93.9238 8.704C94.1665 8.26533 94.2878 7.77533 94.2878 7.234C94.2878 6.69267 94.1665 6.20733 93.9238 5.778C93.6905 5.34867 93.3685 5.008 92.9578 4.756C92.5565 4.504 92.1038 4.378 91.5998 4.378C91.0958 4.378 90.6385 4.504 90.2278 4.756C89.8265 5.008 89.5045 5.34867 89.2618 5.778C89.0191 6.20733 88.8978 6.69267 88.8978 7.234C88.8978 7.77533 89.0191 8.26533 89.2618 8.704C89.5045 9.14267 89.8265 9.488 90.2278 9.74C90.6385 9.992 91.0958 10.118 91.5998 10.118ZM97.2596 11V3.496H98.3096V4.952L98.0716 4.896C98.2583 4.41067 98.5616 4.028 98.9816 3.748C99.411 3.468 99.9056 3.328 100.466 3.328C100.998 3.328 101.474 3.44933 101.894 3.692C102.323 3.93467 102.659 4.27067 102.902 4.7C103.154 5.12 103.28 5.596 103.28 6.128V11H102.23V6.534C102.23 6.07667 102.146 5.68933 101.978 5.372C101.819 5.05467 101.59 4.812 101.292 4.644C101.002 4.46667 100.666 4.378 100.284 4.378C99.901 4.378 99.5603 4.46667 99.2616 4.644C98.963 4.812 98.7296 5.05933 98.5616 5.386C98.3936 5.70333 98.3096 6.086 98.3096 6.534V11H97.2596ZM107.889 11.168C107.17 11.168 106.54 10.986 105.999 10.622C105.458 10.258 105.066 9.76333 104.823 9.138L105.705 8.718C105.92 9.17533 106.218 9.53933 106.601 9.81C106.993 10.0807 107.422 10.216 107.889 10.216C108.337 10.216 108.715 10.1087 109.023 9.894C109.331 9.67 109.485 9.38067 109.485 9.026C109.485 8.76467 109.41 8.55933 109.261 8.41C109.112 8.25133 108.939 8.13 108.743 8.046C108.547 7.962 108.374 7.90133 108.225 7.864L107.147 7.556C106.456 7.36 105.957 7.08467 105.649 6.73C105.341 6.37533 105.187 5.96467 105.187 5.498C105.187 5.05933 105.299 4.67667 105.523 4.35C105.747 4.02333 106.05 3.77133 106.433 3.594C106.816 3.41667 107.24 3.328 107.707 3.328C108.342 3.328 108.916 3.496 109.429 3.832C109.952 4.15867 110.32 4.616 110.535 5.204L109.639 5.624C109.452 5.204 109.182 4.87733 108.827 4.644C108.482 4.40133 108.094 4.28 107.665 4.28C107.245 4.28 106.909 4.38733 106.657 4.602C106.405 4.81667 106.279 5.08733 106.279 5.414C106.279 5.666 106.344 5.86667 106.475 6.016C106.606 6.16533 106.755 6.27733 106.923 6.352C107.1 6.42667 107.254 6.48267 107.385 6.52L108.631 6.884C109.238 7.06133 109.709 7.33667 110.045 7.71C110.39 8.08333 110.563 8.522 110.563 9.026C110.563 9.43667 110.446 9.80533 110.213 10.132C109.989 10.4587 109.676 10.7153 109.275 10.902C108.874 11.0793 108.412 11.168 107.889 11.168ZM112.562 12.96V0.569999H115.362V1.55H113.682V11.98H115.362V12.96H112.562ZM120.212 11.168C119.512 11.168 118.882 11 118.322 10.664C117.762 10.3187 117.319 9.852 116.992 9.264C116.675 8.66667 116.516 7.99467 116.516 7.248C116.516 6.492 116.675 5.82 116.992 5.232C117.319 4.644 117.757 4.182 118.308 3.846C118.868 3.50067 119.503 3.328 120.212 3.328C120.856 3.328 121.43 3.468 121.934 3.748C122.438 4.028 122.835 4.406 123.124 4.882L122.956 5.176V0.402H124.006V11H122.956V9.32L123.124 9.474C122.863 10.0153 122.471 10.4353 121.948 10.734C121.435 11.0233 120.856 11.168 120.212 11.168ZM120.268 10.118C120.772 10.118 121.225 9.992 121.626 9.74C122.037 9.488 122.359 9.14733 122.592 8.718C122.835 8.27933 122.956 7.78933 122.956 7.248C122.956 6.70667 122.835 6.22133 122.592 5.792C122.359 5.35333 122.037 5.008 121.626 4.756C121.225 4.504 120.772 4.378 120.268 4.378C119.773 4.378 119.325 4.504 118.924 4.756C118.523 5.008 118.205 5.34867 117.972 5.778C117.748 6.20733 117.636 6.69733 117.636 7.248C117.636 7.78933 117.748 8.27933 117.972 8.718C118.205 9.14733 118.518 9.488 118.91 9.74C119.311 9.992 119.764 10.118 120.268 10.118ZM129.676 11.168C128.967 11.168 128.323 11 127.744 10.664C127.165 10.3187 126.703 9.852 126.358 9.264C126.022 8.66667 125.854 7.99 125.854 7.234C125.854 6.48733 126.022 5.82 126.358 5.232C126.694 4.644 127.147 4.182 127.716 3.846C128.295 3.50067 128.948 3.328 129.676 3.328C130.404 3.328 131.053 3.496 131.622 3.832C132.201 4.168 132.653 4.63 132.98 5.218C133.316 5.806 133.484 6.478 133.484 7.234C133.484 7.99933 133.311 8.68067 132.966 9.278C132.621 9.866 132.159 10.328 131.58 10.664C131.011 11 130.376 11.168 129.676 11.168ZM129.676 10.118C130.18 10.118 130.633 9.992 131.034 9.74C131.445 9.488 131.767 9.14267 132 8.704C132.243 8.26533 132.364 7.77533 132.364 7.234C132.364 6.69267 132.243 6.20733 132 5.778C131.767 5.34867 131.445 5.008 131.034 4.756C130.633 4.504 130.18 4.378 129.676 4.378C129.172 4.378 128.715 4.504 128.304 4.756C127.903 5.008 127.581 5.34867 127.338 5.778C127.095 6.20733 126.974 6.69267 126.974 7.234C126.974 7.77533 127.095 8.26533 127.338 8.704C127.581 9.14267 127.903 9.488 128.304 9.74C128.715 9.992 129.172 10.118 129.676 10.118ZM138.069 11.084C137.397 11.084 136.879 10.888 136.515 10.496C136.151 10.104 135.969 9.544 135.969 8.816V4.546H134.583V3.496H134.933C135.25 3.496 135.502 3.39333 135.689 3.188C135.876 2.97333 135.969 2.70733 135.969 2.39V1.76H137.019V3.496H138.671V4.546H137.019V8.816C137.019 9.068 137.056 9.292 137.131 9.488C137.206 9.67467 137.332 9.824 137.509 9.936C137.696 10.048 137.943 10.104 138.251 10.104C138.326 10.104 138.414 10.0993 138.517 10.09C138.62 10.0807 138.708 10.0713 138.783 10.062V11C138.671 11.028 138.545 11.0467 138.405 11.056C138.265 11.0747 138.153 11.084 138.069 11.084ZM139.927 12.96V11.98H141.607V1.55H139.927V0.569999H142.727V12.96H139.927ZM145.043 11V3.496H146.093V4.924L145.925 4.714C146.13 4.27533 146.434 3.93467 146.835 3.692C147.246 3.44933 147.694 3.328 148.179 3.328C148.758 3.328 149.28 3.49133 149.747 3.818C150.214 4.14467 150.545 4.56933 150.741 5.092L150.447 5.106C150.634 4.52733 150.956 4.08867 151.413 3.79C151.88 3.482 152.393 3.328 152.953 3.328C153.457 3.328 153.919 3.44933 154.339 3.692C154.768 3.93467 155.109 4.27067 155.361 4.7C155.622 5.12 155.753 5.596 155.753 6.128V11H154.703V6.534C154.703 6.07667 154.619 5.68933 154.451 5.372C154.292 5.05467 154.073 4.812 153.793 4.644C153.513 4.46667 153.191 4.378 152.827 4.378C152.472 4.378 152.15 4.46667 151.861 4.644C151.572 4.812 151.343 5.05933 151.175 5.386C151.007 5.70333 150.923 6.086 150.923 6.534V11H149.873V6.534C149.873 6.07667 149.789 5.68933 149.621 5.372C149.462 5.05467 149.243 4.812 148.963 4.644C148.683 4.46667 148.361 4.378 147.997 4.378C147.633 4.378 147.306 4.46667 147.017 4.644C146.737 4.812 146.513 5.05933 146.345 5.386C146.177 5.70333 146.093 6.086 146.093 6.534V11H145.043ZM157.758 11V0.402H158.808V7.822L158.36 7.752L162.574 3.496H163.932L160.992 6.506L164.198 11H162.938L159.928 6.842L160.6 6.898L158.458 9.11L158.808 8.242V11H157.758ZM165.428 13.8V3.496H166.478V5.176L166.31 4.882C166.608 4.406 167.005 4.028 167.5 3.748C168.004 3.468 168.578 3.328 169.222 3.328C169.931 3.328 170.561 3.50067 171.112 3.846C171.672 4.182 172.11 4.644 172.428 5.232C172.754 5.82 172.918 6.492 172.918 7.248C172.918 7.99467 172.754 8.66667 172.428 9.264C172.11 9.852 171.672 10.3187 171.112 10.664C170.561 11 169.931 11.168 169.222 11.168C168.578 11.168 167.994 11.0233 167.472 10.734C166.958 10.4353 166.571 10.0153 166.31 9.474L166.478 9.32V13.8H165.428ZM169.166 10.118C169.67 10.118 170.118 9.992 170.51 9.74C170.911 9.488 171.224 9.14733 171.448 8.718C171.681 8.27933 171.798 7.78933 171.798 7.248C171.798 6.69733 171.681 6.20733 171.448 5.778C171.224 5.34867 170.911 5.008 170.51 4.756C170.118 4.504 169.67 4.378 169.166 4.378C168.662 4.378 168.204 4.504 167.794 4.756C167.392 5.008 167.07 5.35333 166.828 5.792C166.594 6.22133 166.478 6.70667 166.478 7.248C166.478 7.78933 166.594 8.27933 166.828 8.718C167.07 9.14733 167.392 9.488 167.794 9.74C168.204 9.992 168.662 10.118 169.166 10.118ZM174.766 11V3.496H175.816V4.924L175.648 4.714C175.853 4.27533 176.156 3.93467 176.558 3.692C176.968 3.44933 177.416 3.328 177.902 3.328C178.48 3.328 179.003 3.49133 179.47 3.818C179.936 4.14467 180.268 4.56933 180.464 5.092L180.17 5.106C180.356 4.52733 180.678 4.08867 181.136 3.79C181.602 3.482 182.116 3.328 182.676 3.328C183.18 3.328 183.642 3.44933 184.062 3.692C184.491 3.93467 184.832 4.27067 185.084 4.7C185.345 5.12 185.476 5.596 185.476 6.128V11H184.426V6.534C184.426 6.07667 184.342 5.68933 184.174 5.372C184.015 5.05467 183.796 4.812 183.516 4.644C183.236 4.46667 182.914 4.378 182.55 4.378C182.195 4.378 181.873 4.46667 181.584 4.644C181.294 4.812 181.066 5.05933 180.898 5.386C180.73 5.70333 180.646 6.086 180.646 6.534V11H179.596V6.534C179.596 6.07667 179.512 5.68933 179.344 5.372C179.185 5.05467 178.966 4.812 178.686 4.644C178.406 4.46667 178.084 4.378 177.72 4.378C177.356 4.378 177.029 4.46667 176.74 4.644C176.46 4.812 176.236 5.05933 176.068 5.386C175.9 5.70333 175.816 6.086 175.816 6.534V11H174.766ZM190.14 11.168C189.618 11.168 189.142 11.0467 188.712 10.804C188.283 10.552 187.942 10.2067 187.69 9.768C187.448 9.32 187.326 8.80667 187.326 8.228V3.496H188.376V8.102C188.376 8.50333 188.456 8.858 188.614 9.166C188.782 9.46467 189.011 9.698 189.3 9.866C189.599 10.034 189.94 10.118 190.322 10.118C190.705 10.118 191.046 10.034 191.344 9.866C191.643 9.68867 191.876 9.44133 192.044 9.124C192.212 8.79733 192.296 8.41 192.296 7.962V3.496H193.346V11H192.296V9.544L192.534 9.6C192.357 10.0853 192.054 10.468 191.624 10.748C191.195 11.028 190.7 11.168 190.14 11.168ZM195.66 12.96V0.569999H198.46V1.55H196.78V11.98H198.46V12.96H195.66ZM202.092 11.168C201.616 11.168 201.191 11.0793 200.818 10.902C200.444 10.7153 200.15 10.4633 199.936 10.146C199.721 9.82867 199.614 9.46467 199.614 9.054C199.614 8.662 199.698 8.30733 199.866 7.99C200.034 7.66333 200.295 7.388 200.65 7.164C201.004 6.94 201.457 6.78133 202.008 6.688L204.948 6.198V7.15L202.26 7.598C201.718 7.69133 201.326 7.864 201.084 8.116C200.85 8.368 200.734 8.66667 200.734 9.012C200.734 9.348 200.864 9.63267 201.126 9.866C201.396 10.0993 201.742 10.216 202.162 10.216C202.675 10.216 203.123 10.1087 203.506 9.894C203.888 9.67 204.187 9.37133 204.402 8.998C204.616 8.62467 204.724 8.20933 204.724 7.752V5.848C204.724 5.4 204.56 5.036 204.234 4.756C203.907 4.476 203.482 4.336 202.96 4.336C202.502 4.336 202.101 4.45267 201.756 4.686C201.41 4.91 201.154 5.204 200.986 5.568L200.034 5.05C200.174 4.73267 200.393 4.44333 200.692 4.182C201 3.92067 201.35 3.71533 201.742 3.566C202.134 3.40733 202.54 3.328 202.96 3.328C203.51 3.328 203.996 3.43533 204.416 3.65C204.845 3.86467 205.176 4.16333 205.41 4.546C205.652 4.91933 205.774 5.35333 205.774 5.848V11H204.724V9.502L204.878 9.656C204.747 9.936 204.542 10.1927 204.262 10.426C203.991 10.65 203.669 10.832 203.296 10.972C202.932 11.1027 202.53 11.168 202.092 11.168ZM210.667 11.084C209.995 11.084 209.477 10.888 209.113 10.496C208.749 10.104 208.567 9.544 208.567 8.816V4.546H207.181V3.496H207.531C207.848 3.496 208.1 3.39333 208.287 3.188C208.473 2.97333 208.567 2.70733 208.567 2.39V1.76H209.617V3.496H211.269V4.546H209.617V8.816C209.617 9.068 209.654 9.292 209.729 9.488C209.803 9.67467 209.929 9.824 210.107 9.936C210.293 10.048 210.541 10.104 210.849 10.104C210.923 10.104 211.012 10.0993 211.115 10.09C211.217 10.0807 211.306 10.0713 211.381 10.062V11C211.269 11.028 211.143 11.0467 211.003 11.056C210.863 11.0747 210.751 11.084 210.667 11.084ZM212.524 12.96V11.98H214.204V1.55H212.524V0.569999H215.324V12.96H212.524ZM221.197 14.08C220.683 14.08 220.207 14.0007 219.769 13.842C219.339 13.6833 218.966 13.464 218.649 13.184C218.341 12.9133 218.103 12.596 217.935 12.232L218.901 11.714C219.05 12.0687 219.316 12.3767 219.699 12.638C220.081 12.8993 220.571 13.03 221.169 13.03C221.626 13.03 222.046 12.9413 222.429 12.764C222.811 12.5867 223.119 12.3253 223.353 11.98C223.586 11.6347 223.703 11.21 223.703 10.706V9.04L223.871 9.194C223.609 9.73533 223.222 10.1553 222.709 10.454C222.195 10.7433 221.635 10.888 221.029 10.888C220.329 10.888 219.699 10.72 219.139 10.384C218.579 10.048 218.135 9.59533 217.809 9.026C217.491 8.44733 217.333 7.808 217.333 7.108C217.333 6.39867 217.491 5.75933 217.809 5.19C218.135 4.62067 218.574 4.168 219.125 3.832C219.685 3.496 220.319 3.328 221.029 3.328C221.635 3.328 222.186 3.468 222.681 3.748C223.185 4.028 223.581 4.406 223.871 4.882L223.703 5.176V3.496H224.753V10.706C224.753 11.35 224.599 11.924 224.291 12.428C223.992 12.9413 223.572 13.3427 223.031 13.632C222.499 13.9307 221.887 14.08 221.197 14.08ZM221.085 9.838C221.57 9.838 222.009 9.71667 222.401 9.474C222.793 9.222 223.105 8.89067 223.339 8.48C223.581 8.06 223.703 7.60267 223.703 7.108C223.703 6.61333 223.581 6.16067 223.339 5.75C223.105 5.33 222.793 4.99867 222.401 4.756C222.009 4.504 221.57 4.378 221.085 4.378C220.59 4.378 220.142 4.504 219.741 4.756C219.339 4.99867 219.022 5.32533 218.789 5.736C218.565 6.14667 218.453 6.604 218.453 7.108C218.453 7.60267 218.565 8.06 218.789 8.48C219.022 8.89067 219.335 9.222 219.727 9.474C220.128 9.71667 220.581 9.838 221.085 9.838ZM226.91 11V3.496H227.96V4.924L227.792 4.714C227.997 4.27533 228.301 3.93467 228.702 3.692C229.113 3.44933 229.561 3.328 230.046 3.328C230.625 3.328 231.147 3.49133 231.614 3.818C232.081 4.14467 232.412 4.56933 232.608 5.092L232.314 5.106C232.501 4.52733 232.823 4.08867 233.28 3.79C233.747 3.482 234.26 3.328 234.82 3.328C235.324 3.328 235.786 3.44933 236.206 3.692C236.635 3.93467 236.976 4.27067 237.228 4.7C237.489 5.12 237.62 5.596 237.62 6.128V11H236.57V6.534C236.57 6.07667 236.486 5.68933 236.318 5.372C236.159 5.05467 235.94 4.812 235.66 4.644C235.38 4.46667 235.058 4.378 234.694 4.378C234.339 4.378 234.017 4.46667 233.728 4.644C233.439 4.812 233.21 5.05933 233.042 5.386C232.874 5.70333 232.79 6.086 232.79 6.534V11H231.74V6.534C231.74 6.07667 231.656 5.68933 231.488 5.372C231.329 5.05467 231.11 4.812 230.83 4.644C230.55 4.46667 230.228 4.378 229.864 4.378C229.5 4.378 229.173 4.46667 228.884 4.644C228.604 4.812 228.38 5.05933 228.212 5.386C228.044 5.70333 227.96 6.086 227.96 6.534V11H226.91ZM241.795 11.168C241.319 11.168 240.894 11.0793 240.521 10.902C240.148 10.7153 239.854 10.4633 239.639 10.146C239.424 9.82867 239.317 9.46467 239.317 9.054C239.317 8.662 239.401 8.30733 239.569 7.99C239.737 7.66333 239.998 7.388 240.353 7.164C240.708 6.94 241.16 6.78133 241.711 6.688L244.651 6.198V7.15L241.963 7.598C241.422 7.69133 241.03 7.864 240.787 8.116C240.554 8.368 240.437 8.66667 240.437 9.012C240.437 9.348 240.568 9.63267 240.829 9.866C241.1 10.0993 241.445 10.216 241.865 10.216C242.378 10.216 242.826 10.1087 243.209 9.894C243.592 9.67 243.89 9.37133 244.105 8.998C244.32 8.62467 244.427 8.20933 244.427 7.752V5.848C244.427 5.4 244.264 5.036 243.937 4.756C243.61 4.476 243.186 4.336 242.663 4.336C242.206 4.336 241.804 4.45267 241.459 4.686C241.114 4.91 240.857 5.204 240.689 5.568L239.737 5.05C239.877 4.73267 240.096 4.44333 240.395 4.182C240.703 3.92067 241.053 3.71533 241.445 3.566C241.837 3.40733 242.243 3.328 242.663 3.328C243.214 3.328 243.699 3.43533 244.119 3.65C244.548 3.86467 244.88 4.16333 245.113 4.546C245.356 4.91933 245.477 5.35333 245.477 5.848V11H244.427V9.502L244.581 9.656C244.45 9.936 244.245 10.1927 243.965 10.426C243.694 10.65 243.372 10.832 242.999 10.972C242.635 11.1027 242.234 11.168 241.795 11.168ZM247.637 11V3.496H248.687V11H247.637ZM247.637 2.11V0.569999H248.687V2.11H247.637ZM250.836 11V0.402H251.886V11H250.836ZM254.399 11V9.46H255.519V11H254.399ZM261.471 11.168C260.734 11.168 260.085 10.9953 259.525 10.65C258.965 10.3047 258.526 9.838 258.209 9.25C257.892 8.65267 257.733 7.98067 257.733 7.234C257.733 6.48733 257.892 5.82 258.209 5.232C258.526 4.644 258.965 4.182 259.525 3.846C260.085 3.50067 260.734 3.328 261.471 3.328C261.938 3.328 262.376 3.412 262.787 3.58C263.198 3.748 263.562 3.97667 263.879 4.266C264.196 4.546 264.434 4.87267 264.593 5.246L263.641 5.736C263.454 5.33467 263.17 5.008 262.787 4.756C262.404 4.504 261.966 4.378 261.471 4.378C260.976 4.378 260.528 4.504 260.127 4.756C259.735 4.99867 259.422 5.33933 259.189 5.778C258.965 6.20733 258.853 6.69733 258.853 7.248C258.853 7.78933 258.965 8.27933 259.189 8.718C259.422 9.14733 259.735 9.488 260.127 9.74C260.528 9.992 260.976 10.118 261.471 10.118C261.966 10.118 262.4 9.992 262.773 9.74C263.156 9.488 263.445 9.152 263.641 8.732L264.593 9.25C264.434 9.614 264.196 9.94067 263.879 10.23C263.562 10.5193 263.198 10.748 262.787 10.916C262.376 11.084 261.938 11.168 261.471 11.168ZM269.949 11.168C269.24 11.168 268.596 11 268.017 10.664C267.439 10.3187 266.977 9.852 266.631 9.264C266.295 8.66667 266.127 7.99 266.127 7.234C266.127 6.48733 266.295 5.82 266.631 5.232C266.967 4.644 267.42 4.182 267.989 3.846C268.568 3.50067 269.221 3.328 269.949 3.328C270.677 3.328 271.326 3.496 271.895 3.832C272.474 4.168 272.927 4.63 273.253 5.218C273.589 5.806 273.757 6.478 273.757 7.234C273.757 7.99933 273.585 8.68067 273.239 9.278C272.894 9.866 272.432 10.328 271.853 10.664C271.284 11 270.649 11.168 269.949 11.168ZM269.949 10.118C270.453 10.118 270.906 9.992 271.307 9.74C271.718 9.488 272.04 9.14267 272.273 8.704C272.516 8.26533 272.637 7.77533 272.637 7.234C272.637 6.69267 272.516 6.20733 272.273 5.778C272.04 5.34867 271.718 5.008 271.307 4.756C270.906 4.504 270.453 4.378 269.949 4.378C269.445 4.378 268.988 4.504 268.577 4.756C268.176 5.008 267.854 5.34867 267.611 5.778C267.369 6.20733 267.247 6.69267 267.247 7.234C267.247 7.77533 267.369 8.26533 267.611 8.704C267.854 9.14267 268.176 9.488 268.577 9.74C268.988 9.992 269.445 10.118 269.949 10.118ZM275.609 11V3.496H276.659V4.924L276.491 4.714C276.697 4.27533 277 3.93467 277.401 3.692C277.812 3.44933 278.26 3.328 278.745 3.328C279.324 3.328 279.847 3.49133 280.313 3.818C280.78 4.14467 281.111 4.56933 281.307 5.092L281.013 5.106C281.2 4.52733 281.522 4.08867 281.979 3.79C282.446 3.482 282.959 3.328 283.519 3.328C284.023 3.328 284.485 3.44933 284.905 3.692C285.335 3.93467 285.675 4.27067 285.927 4.7C286.189 5.12 286.319 5.596 286.319 6.128V11H285.269V6.534C285.269 6.07667 285.185 5.68933 285.017 5.372C284.859 5.05467 284.639 4.812 284.359 4.644C284.079 4.46667 283.757 4.378 283.393 4.378C283.039 4.378 282.717 4.46667 282.427 4.644C282.138 4.812 281.909 5.05933 281.741 5.386C281.573 5.70333 281.489 6.086 281.489 6.534V11H280.439V6.534C280.439 6.07667 280.355 5.68933 280.187 5.372C280.029 5.05467 279.809 4.812 279.529 4.644C279.249 4.46667 278.927 4.378 278.563 4.378C278.199 4.378 277.873 4.46667 277.583 4.644C277.303 4.812 277.079 5.05933 276.911 5.386C276.743 5.70333 276.659 6.086 276.659 6.534V11H275.609Z" fill="black"/>
</svg>
