<svg width="98" height="98" viewBox="0 0 98 98" fill="none" xmlns="http://www.w3.org/2000/svg">
<g clip-path="url(#clip0_441_354)">
<path fill-rule="evenodd" clip-rule="evenodd" d="M56.3041 45.3109C56.3041 41.2931 53.0168 38.0059 48.9992 38.0059C44.9816 38.0059 41.6943 41.2931 41.6943 45.3109V48.9634C41.6943 50.8308 42.4044 52.5402 43.568 53.8354C44.9079 55.3267 46.849 56.2682 48.9994 56.2682C51.1498 56.2682 53.0909 55.3266 54.4306 53.8354C55.5942 52.5404 56.3043 50.8308 56.3043 48.9634V45.3109H56.3041Z" fill="#BB6B57"/>
<path fill-rule="evenodd" clip-rule="evenodd" d="M54.4307 53.8363C53.0908 55.3277 51.1498 56.2692 48.9995 56.2692C46.8491 56.2692 44.9081 55.3275 43.5685 53.8359C39.2335 55.8873 36.2158 60.3083 36.2158 65.4003V88.0812H61.7833V65.4003C61.7833 60.3087 58.7656 55.8875 54.4307 53.8363Z" fill="#FF5A58"/>
<path fill-rule="evenodd" clip-rule="evenodd" d="M33.6967 45.3109C33.6967 41.2931 30.4094 38.0059 26.3918 38.0059C22.3741 38.0059 19.0869 41.2931 19.0869 45.3109V48.9634C19.0869 50.8308 19.797 52.5402 20.9606 53.8354C22.3005 55.3267 24.2416 56.2682 26.392 56.2682C28.5424 56.2682 30.4835 55.3266 31.8232 53.8354C32.9867 52.5404 33.6968 50.8308 33.6968 48.9634V45.3109H33.6967Z" fill="#CC9081"/>
<path fill-rule="evenodd" clip-rule="evenodd" d="M31.8233 53.8363C30.4834 55.3277 28.5423 56.2692 26.3921 56.2692C24.2419 56.2692 22.3006 55.3275 20.9611 53.8359C16.6261 55.8873 13.6084 60.3083 13.6084 65.4003V88.0812H39.1758V65.4003C39.1758 60.3087 36.1581 55.8875 31.8233 53.8363Z" fill="#66E0F7"/>
<path fill-rule="evenodd" clip-rule="evenodd" d="M78.9115 45.3109C78.9115 41.2931 75.6243 38.0059 71.6066 38.0059C67.5888 38.0059 64.3018 41.2931 64.3018 45.3109V48.9634C64.3018 50.8308 65.0119 52.5402 66.1754 53.8354C67.5153 55.3267 69.4564 56.2682 71.6066 56.2682C73.7571 56.2682 75.6981 55.3266 77.038 53.8354C78.2016 52.5404 78.9117 50.8308 78.9117 48.9634V45.3109H78.9115Z" fill="#CC9081"/>
<path fill-rule="evenodd" clip-rule="evenodd" d="M77.0383 53.8363C75.6984 55.3277 73.7574 56.2692 71.607 56.2692C69.4565 56.2692 67.5155 55.3275 66.1759 53.8359C61.8409 55.8873 58.8232 60.3083 58.8232 65.4003V88.0812H84.3907V65.4003C84.3909 60.3087 81.3732 55.8875 77.0383 53.8363Z" fill="#FF9346"/>
<path fill-rule="evenodd" clip-rule="evenodd" d="M46.7791 4.36722C43.482 1.08056 38.0865 1.08056 34.7894 4.36722C25.8314 13.2965 43.0769 28.902 48.9996 30.484C54.9222 28.902 72.1677 13.2965 63.2097 4.36722C59.9126 1.08056 54.5171 1.08056 51.22 4.36722C49.8983 5.68454 47.9634 5.54768 46.7791 4.36722Z" fill="#FF5A58"/>
<path fill-rule="evenodd" clip-rule="evenodd" d="M22.3929 71.4162C22.3929 67.3984 19.1057 64.1113 15.0881 64.1113C11.0704 64.1113 7.7832 67.3986 7.7832 71.4162V75.0686C7.7832 76.936 8.4933 78.6455 9.65688 79.9406C10.9968 81.432 12.9378 82.3735 15.0881 82.3735C17.2385 82.3735 19.1796 81.4318 20.5195 79.9406C21.683 78.6457 22.3931 76.936 22.3931 75.0686L22.3929 71.4162Z" fill="#BB6B57"/>
<path fill-rule="evenodd" clip-rule="evenodd" d="M20.5198 79.9418C19.1799 81.4332 17.2388 82.3747 15.0884 82.3747C12.938 82.3747 10.9969 81.433 9.65739 79.9414C5.32238 81.9927 2.30469 86.4137 2.30469 91.5057V96.1008H27.8721V91.5057C27.8723 86.4139 24.8546 81.9929 20.5198 79.9418Z" fill="#FFC144"/>
<path fill-rule="evenodd" clip-rule="evenodd" d="M45.0004 71.4162C45.0004 67.3984 41.7131 64.1113 37.6955 64.1113C33.6777 64.1113 30.3906 67.3986 30.3906 71.4162V75.0686C30.3906 76.936 31.1007 78.6455 32.2643 79.9406C33.6042 81.432 35.5453 82.3735 37.6955 82.3735C39.8459 82.3735 41.787 81.4318 43.1267 79.9406C44.2903 78.6457 45.0004 76.936 45.0004 75.0686V71.4162Z" fill="#E5AE8C"/>
<path fill-rule="evenodd" clip-rule="evenodd" d="M43.127 79.9418C41.7871 81.4332 39.8461 82.3747 37.6958 82.3747C35.5454 82.3747 33.6043 81.433 32.2648 79.9414C27.9298 81.9927 24.9121 86.4137 24.9121 91.5057V96.1008H50.4795V91.5057C50.4795 86.4139 47.4617 81.9929 43.127 79.9418Z" fill="#8481E2"/>
<path fill-rule="evenodd" clip-rule="evenodd" d="M67.6078 71.4162C67.6078 67.3984 64.3206 64.1113 60.3029 64.1113C56.2851 64.1113 52.998 67.3986 52.998 71.4162V75.0686C52.998 76.936 53.7081 78.6455 54.8717 79.9406C56.2116 81.432 58.1527 82.3735 60.3031 82.3735C62.4535 82.3735 64.3946 81.4318 65.7343 79.9406C66.8979 78.6457 67.608 76.936 67.608 75.0686V71.4162H67.6078Z" fill="#CC9081"/>
<path fill-rule="evenodd" clip-rule="evenodd" d="M65.7344 79.9418C64.3945 81.4332 62.4535 82.3747 60.3032 82.3747C58.1528 82.3747 56.2118 81.433 54.8722 79.9414C50.5372 81.9927 47.5195 86.4137 47.5195 91.5057V96.1008H73.087V91.5057C73.087 86.4139 70.0693 81.9929 65.7344 79.9418Z" fill="white"/>
<path fill-rule="evenodd" clip-rule="evenodd" d="M90.2152 71.4162C90.2152 67.3984 86.928 64.1113 82.9103 64.1113C78.8925 64.1113 75.6055 67.3986 75.6055 71.4162V75.0686C75.6055 76.936 76.3156 78.6455 77.4791 79.9406C78.8191 81.432 80.7601 82.3735 82.9103 82.3735C85.0608 82.3735 87.0018 81.4318 88.3415 79.9406C89.5051 78.6457 90.2152 76.936 90.2152 75.0686V71.4162Z" fill="#E5AE8C"/>
<path fill-rule="evenodd" clip-rule="evenodd" d="M88.3419 79.9418C87.002 81.4332 85.0609 82.3747 82.9107 82.3747C80.7602 82.3747 78.8192 81.433 77.4797 79.9414C73.1446 81.9927 70.127 86.4137 70.127 91.5057V96.1008H95.6944V91.5057C95.6944 86.4139 92.6767 81.9929 88.3419 79.9418Z" fill="#CBE558"/>
<path d="M91.0726 79.3164C91.7365 78.0452 92.1143 76.6019 92.1143 75.071V71.4184C92.1143 67.4455 89.5836 64.0532 86.0498 62.767C85.338 58.8486 83.0785 55.4213 79.7694 53.2092C80.4328 51.9384 80.8103 50.4954 80.8103 48.9653V45.3126C80.8103 40.2381 76.6819 36.1096 71.6073 36.1096C66.5328 36.1096 62.4043 40.2381 62.4043 45.3126V48.9653C62.4043 50.4956 62.7818 51.9386 63.4454 53.2096C62.2519 54.0077 61.1954 54.9652 60.2977 56.0462C59.3946 54.9555 58.3394 54.0034 57.1604 53.2126C57.825 51.9408 58.2031 50.4969 58.2031 48.9653V45.3126C58.2031 40.2381 54.0746 36.1096 49.0001 36.1096C43.9255 36.1096 39.797 40.2381 39.797 45.3126V48.9653C39.797 50.4969 40.1752 51.941 40.8399 53.2126C39.6543 54.0077 38.5942 54.9669 37.6874 56.0655C36.7883 54.9767 35.7344 54.0117 34.5526 53.2137C35.2175 51.9418 35.596 50.4973 35.596 48.9653V45.3126C35.596 40.2381 31.4675 36.1096 26.3928 36.1096C21.3183 36.1096 17.1898 40.2381 17.1898 45.3126V48.9653C17.1898 50.4956 17.5673 51.9386 18.2309 53.2096C14.9245 55.4207 12.6627 58.8488 11.9503 62.7672C8.4165 64.0532 5.88607 67.4455 5.88607 71.4184V75.071C5.88607 76.6017 6.2638 78.0452 6.92778 79.3164C2.86496 82.0304 0.407227 86.5492 0.407227 91.5072V96.1022C0.407227 97.1506 1.25703 98.0004 2.30538 98.0004H24.9128H47.5203H73.0877H95.6951C96.7433 98.0004 97.5933 97.1506 97.5933 96.1022V91.5072C97.5931 86.5492 95.1356 82.0302 91.0726 79.3164ZM88.3181 71.4184V75.071C88.3181 78.0523 85.8927 80.4777 82.9114 80.4777C79.9302 80.4777 77.5047 78.0523 77.5047 75.071V71.4184C77.5047 68.437 79.9302 66.0117 82.9114 66.0117C85.8927 66.0117 88.3181 68.4371 88.3181 71.4184ZM82.0229 62.259C77.3637 62.7076 73.7082 66.6436 73.7082 71.4184V75.071C73.7082 76.6026 74.0865 78.047 74.7512 79.3187C73.5746 80.1084 72.5209 81.0608 71.6178 82.1504C70.7213 81.0717 69.6623 80.1163 68.4651 79.3164C69.1291 78.0452 69.5068 76.6017 69.5068 75.071V71.4184C69.5068 66.6438 65.8515 62.7077 61.1925 62.259C61.9618 59.7582 63.636 57.5643 65.8785 56.16C67.4519 57.4153 69.4427 58.1683 71.6073 58.1683C73.7718 58.1683 75.7626 57.4153 77.336 56.16C79.5802 57.5649 81.2536 59.7578 82.0229 62.259ZM54.8969 75.071V71.4184C54.8969 68.4371 57.3224 66.0117 60.3036 66.0117C63.2849 66.0117 65.7103 68.4371 65.7103 71.4184V75.071C65.7103 78.0523 63.2849 80.4777 60.3036 80.4777C57.3224 80.4777 54.8969 78.0523 54.8969 75.071ZM66.2006 45.3126C66.2006 42.3312 68.6261 39.9059 71.6073 39.9059C74.5886 39.9059 77.014 42.3314 77.014 45.3126V48.9653C77.014 51.9465 74.5886 54.372 71.6073 54.372C68.6261 54.372 66.2006 51.9465 66.2006 48.9653V45.3126ZM43.5932 45.3126C43.5932 42.3312 46.0186 39.9059 48.9999 39.9059C51.9811 39.9059 54.4066 42.3314 54.4066 45.3126V48.9653C54.4066 51.9465 51.9811 54.372 48.9999 54.372C46.0184 54.372 43.593 51.9465 43.593 48.9653V45.3126H43.5932ZM43.2714 56.16C44.8448 57.4153 46.8356 58.1683 49.0001 58.1683C51.1645 58.1683 53.1553 57.4153 54.7285 56.1602C56.1049 57.0169 57.269 58.1624 58.1505 59.5297C57.7022 60.5569 57.3694 61.6417 57.1648 62.7672C53.631 64.0532 51.1006 67.4457 51.1006 71.4184V75.071C51.1006 76.6017 51.4783 78.0451 52.1423 79.3162C50.9455 80.1156 49.8869 81.0703 48.9908 82.1481C48.0882 81.0589 47.0343 80.1082 45.8567 79.3183C46.5215 78.0466 46.8996 76.6025 46.8996 75.0708V71.4184C46.8996 67.4446 44.3678 64.0516 40.8329 62.7662C40.6269 61.6543 40.2909 60.5746 39.838 59.5481C40.7209 58.1725 41.8894 57.0203 43.2714 56.16ZM32.2894 75.071V71.4184C32.2894 68.437 34.7149 66.0117 37.6963 66.0117C40.6778 66.0117 43.1032 68.4371 43.1032 71.4184V75.071C43.1032 78.0523 40.6778 80.4777 37.6963 80.4777C34.7149 80.4777 32.2894 78.0523 32.2894 75.071ZM20.9857 45.3126C20.9857 42.3312 23.4112 39.9059 26.3924 39.9059C29.3739 39.9059 31.7993 42.3314 31.7993 45.3126V48.9653C31.7993 51.9465 29.3739 54.372 26.3926 54.372C23.4112 54.372 20.9857 51.9465 20.9857 48.9653V45.3126ZM20.6638 56.16C22.2372 57.4153 24.228 58.1683 26.3926 58.1683C28.5571 58.1683 30.5481 57.4153 32.1213 56.16C34.3658 57.5649 36.0387 59.7576 36.8078 62.259C32.1486 62.7076 28.4931 66.6436 28.4931 71.4184V75.071C28.4931 76.6017 28.8709 78.0452 29.5348 79.3164C28.3384 80.1156 27.2802 81.07 26.3841 82.1474C25.4817 81.0582 24.4273 80.1082 23.2493 79.3183C23.9138 78.0466 24.2919 76.6026 24.2919 75.071V71.4184C24.2919 66.6438 20.6367 62.7077 15.9776 62.259C16.7473 59.7582 18.4213 57.5643 20.6638 56.16ZM9.6822 71.4184C9.6822 68.437 12.1077 66.0117 15.0891 66.0117C18.0703 66.0117 20.4958 68.4371 20.4958 71.4184V75.071C20.4958 78.0523 18.0703 80.4777 15.0891 80.4777C12.1077 80.4777 9.6822 78.0523 9.6822 75.071V71.4184ZM4.20335 91.5072C4.20335 87.7069 6.15542 84.2526 9.35932 82.2652C10.9327 83.5209 12.9241 84.2742 15.0889 84.2742C17.2534 84.2742 19.2442 83.5212 20.8175 82.266C22.1928 83.1219 23.3556 84.2649 24.2363 85.6305C23.4431 87.4472 23.0145 89.4387 23.0145 91.5072V94.2041H4.20335V91.5072ZM26.8108 91.5072C26.8108 87.7069 28.7627 84.2526 31.9666 82.2652C33.54 83.5209 35.5313 84.2742 37.6962 84.2742C39.8606 84.2742 41.8514 83.5212 43.4248 82.2662C44.7993 83.1217 45.9623 84.2655 46.8434 85.6312C46.0503 87.4478 45.6217 89.4391 45.6217 91.5074V94.2043H26.8106V91.5072H26.8108ZM49.4182 91.5072C49.4182 87.7069 51.3701 84.2526 54.574 82.2652C56.1474 83.5209 58.1388 84.2742 60.3036 84.2742C62.4685 84.2742 64.4598 83.521 66.0332 82.2652C69.2369 84.2528 71.1893 87.7082 71.1893 91.5072V94.2041H49.4182V91.5072ZM93.7968 94.2039H74.9857V91.507C74.9857 89.4395 74.5571 87.4481 73.7638 85.6314C74.6453 84.2659 75.8097 83.1209 77.1826 82.2658C78.7558 83.521 80.7466 84.2739 82.911 84.2739C85.0759 84.2739 87.0672 83.5207 88.6406 82.2648C91.8447 84.2522 93.7966 87.7065 93.7966 91.5068V94.2039H93.7968Z" fill="black"/>
<path d="M33.6717 16.1366C34.6576 15.7805 35.1684 14.6925 34.8123 13.7066C33.6188 10.4015 34.0498 7.78658 36.1304 5.71265C38.6969 3.15412 42.8732 3.15412 45.4399 5.71265C47.4364 7.70268 50.5644 7.70287 52.5609 5.71265C55.1277 3.15412 59.3039 3.15412 61.8706 5.71265C63.7338 7.57 64.2708 9.85215 63.5117 12.6893C61.6098 19.7989 52.7879 27.059 49.002 28.4907C47.9187 28.0777 46.4076 27.1749 44.8306 25.9893C43.9926 25.3592 42.8024 25.5279 42.1728 26.3659C41.5428 27.204 41.7114 28.3939 42.5494 29.0237C44.815 30.727 46.9321 31.8972 48.5108 32.3187C48.6712 32.3616 48.8359 32.3831 49.0007 32.3831C49.1654 32.3831 49.33 32.3616 49.4906 32.3187C52.017 31.644 55.8633 29.0581 59.2896 25.7308C61.6426 23.446 65.7961 18.8411 67.1793 13.6703C68.2884 9.52472 67.3796 5.84324 64.5508 3.02391C60.5064 -1.00797 53.9253 -1.00797 49.881 3.02391C49.3031 3.59981 48.5576 3.45991 48.1203 3.02391C44.0755 -1.00778 37.4948 -1.0074 33.4504 3.02391C30.3082 6.15606 29.5444 10.2959 31.2417 14.9958C31.5978 15.9819 32.6856 16.4921 33.6717 16.1366Z" fill="black"/>
<path d="M37.4814 19.7422C36.433 19.7422 35.584 20.592 35.584 21.6403C35.584 22.6887 36.4344 23.5385 37.4827 23.5385C38.5311 23.5385 39.3809 22.6887 39.3809 21.6403C39.3809 20.592 38.5311 19.7422 37.4827 19.7422H37.4814Z" fill="black"/>
</g>
<defs>
<clipPath id="clip0_441_354">
<rect width="98" height="98" fill="white"/>
</clipPath>
</defs>
</svg>
