<svg width="80" height="80" viewBox="0 0 80 80" fill="none" xmlns="http://www.w3.org/2000/svg">
<g clip-path="url(#clip0_99_1528)">
<path d="M55.7013 32.9689H42.3438V14.5485L24.2988 47.0314H37.6563V65.4519L55.7013 32.9689Z" fill="black" fill-opacity="0.8"/>
<path d="M19.043 68.0865L18.1595 53.635L14.898 56.9561C12.0936 52.2667 9.375 47.7609 9.375 39.9615C9.375 34.8719 10.7764 30.0475 13.3217 25.7476L6.16141 27.1512L6.4975 19.0503C2.34234 25.2123 0 32.4576 0 39.9615C0 49.1592 2.89359 55.764 7.63781 62.7445L4.25031 65.5483L19.043 68.0865Z" fill="black" fill-opacity="0.8"/>
<path d="M59.2902 5.42918C53.4788 1.9145 46.9096 0.00012207 40.0002 0.00012207C30.134 0.00012207 22.6193 3.47168 15.4001 9.13481L11.8752 6.16856L11.248 21.2907L26.6312 18.274L22.5685 15.1795C27.258 12.3407 31.7421 9.44372 39.9659 9.44372C44.2379 9.44372 48.3401 10.4131 52.0651 12.172L50.5401 5.42918H59.2902Z" fill="black" fill-opacity="0.8"/>
<path d="M69.3158 13.6426L73.3006 10.2345H56.5625L59.8995 24.9904L63.683 21.2826C67.0792 25.9701 70.625 31.1223 70.625 39.9614C70.625 43.7011 69.8642 47.3596 68.4414 50.7664L72.9641 49.0846L73.8878 60.4289C77.8742 54.3459 80 47.3454 80 39.9615C80 29.0601 75.9216 21.2662 69.3158 13.6426Z" fill="black" fill-opacity="0.8"/>
<path d="M68.6377 55.83L54.0625 61.25L58.3404 64.1042C53.6525 67.1646 48.9488 70.474 40.1191 70.474C34.0918 70.474 28.4055 68.6187 23.7136 65.3125L24.2393 73.9026L17.9502 72.8234C24.3243 77.4734 31.9757 80 40 80C50.8185 80 58.8602 75.8878 66.2322 69.3615L69.9561 72.0165L68.6377 55.83Z" fill="black" fill-opacity="0.8"/>
</g>
<defs>
<clipPath id="clip0_99_1528">
<rect width="80" height="80" fill="white"/>
</clipPath>
</defs>
</svg>
