<svg width="80" height="80" viewBox="0 0 80 80" fill="none" xmlns="http://www.w3.org/2000/svg">
<path fill-rule="evenodd" clip-rule="evenodd" d="M35.5229 0.485014C33.9196 1.27097 32.2186 3.91865 30.9439 7.61367C30.2821 9.53189 29.6367 11.5391 29.5101 12.0739C29.3142 12.8995 28.8594 13.1679 26.4957 13.8517C22.7373 14.9384 17.8928 16.9216 16.1897 18.0699C14.6289 19.1219 13.8701 20.4974 14.2565 21.5739C14.5551 22.4047 14.8012 22.393 22.4742 21.1944C35.5233 19.1562 54.2049 19.1613 67.6289 21.2068C70.4639 21.6388 73.433 22.0026 74.2268 22.015C75.5476 22.0357 75.6808 21.941 75.7955 20.9006C75.8915 20.0264 75.6219 19.4992 74.6301 18.6225C73.1538 17.3171 68.8037 15.3857 64.4153 14.0869C62.7612 13.5969 61.313 13.1124 61.1967 13.0096C61.0804 12.9068 60.6425 11.3429 60.2231 9.53445C59.2969 5.53686 57.6066 2.0839 55.9868 0.878722C54.5365 -0.199963 52.8586 -0.267768 48.5076 0.577609C45.6759 1.12771 45.2214 1.12771 42.466 0.577609C38.9089 -0.132522 36.8392 -0.160228 35.5229 0.485014ZM34.0206 22.802C33.1134 22.8811 31.3967 23.0404 30.2062 23.156L28.0412 23.366V24.9036C28.0412 30.5493 31.9019 35.9303 37.8012 38.5076C40.4911 39.6829 41.3687 39.8805 44.4697 40.0092C47.3584 40.1291 48.5472 40.0063 50.6874 39.3665C57.4652 37.3404 62.1513 32.0946 62.5909 26.0421L62.7823 23.4039L61.1852 23.1786C59.2887 22.9114 36.3988 22.5939 34.0206 22.802ZM0.494844 28.8545C0.143504 29.1651 0 31.3699 0 36.456C0 43.2854 0.043299 43.6765 0.927835 44.8252C2.30763 46.6176 3.68371 47.3617 6.08412 47.6129L8.23876 47.8385L8.34639 63.9193L8.45361 80H10.5155H12.5773L12.6845 63.8689L12.7922 47.7379L14.5402 47.7299C16.9872 47.7186 19.4895 46.6187 20.5633 45.0826C21.4186 43.8595 21.4553 43.4527 21.3489 36.421C21.2478 29.7506 21.1654 29.004 20.4895 28.6387C19.8808 28.3099 19.5938 28.3945 18.9431 29.0955C18.2173 29.8771 18.1443 30.5672 18.1443 36.6332V43.3105L17.0577 44.0658C16.4602 44.4814 15.8107 44.8215 15.6144 44.8215C15.4181 44.8215 15.2577 41.3274 15.2577 37.0568C15.2577 29.2694 15.1101 28.4171 13.7612 28.4171C13.4829 28.4171 12.9633 28.6748 12.6066 28.9898C12.059 29.4743 11.9588 30.7425 11.9588 37.192V44.8215H10.5155H9.07216V37.0568C9.07216 29.3642 8.91423 28.4065 7.64949 28.4225C6.09443 28.4426 5.98392 28.9482 5.7732 37.0039L5.56701 44.8893L4.43299 44.0997L3.29897 43.3105V36.4367C3.29897 30.6736 3.19423 29.4702 2.65113 28.9898C1.87629 28.3048 1.16701 28.2603 0.494844 28.8545ZM37.5637 44.624C32.1489 45.5317 32.5381 45.298 32.814 47.4721C32.9468 48.5206 33.3658 51.921 33.7443 55.0288L34.433 60.6792L45.4639 60.7762C53.7464 60.8491 56.4948 60.766 56.4948 60.4419C56.4948 60.2046 56.8763 56.8205 57.3423 52.9221C57.8082 49.0233 58.0948 45.75 57.9798 45.648C56.6148 44.4417 42.788 43.748 37.5637 44.624ZM23.5052 48.5038C21.5773 49.3073 18.8404 50.5642 17.4227 51.2966L14.8454 52.6286V63.6714V74.7141H19.5876C22.1959 74.7141 24.3324 74.5909 24.3357 74.4407C24.3744 72.6461 26.433 61.8038 26.8111 61.4006C27.0895 61.1042 27.666 60.8615 28.0915 60.8615C28.5468 60.8615 28.866 60.6048 28.866 60.2392C28.866 58.7613 27.5472 48.2278 27.2915 47.6639C27.0417 47.1123 26.619 47.206 23.5052 48.5038ZM63.3225 48.5581C63.0895 50.106 61.8557 60.2888 61.8557 60.6635C61.8557 60.7725 62.1979 60.8615 62.6165 60.8615C64.1691 60.8615 64.6157 62.0025 65.5786 68.4257L66.5208 74.7141H73.2606H80L79.9909 66.2385C79.9827 58.6341 79.9002 57.613 79.1889 56.3047C78.1489 54.3926 77.7443 53.9935 75.0515 52.2207C72.5307 50.5613 64.7839 47.0088 63.6862 47.0088C63.6144 47.0088 63.4507 47.7058 63.3225 48.5581ZM30.7905 62.5628C30.6392 62.6962 30.5155 63.2594 30.5155 63.8139C30.5155 64.9731 31.8289 65.5721 32.8033 64.8569C33.6008 64.2718 33.567 62.8183 32.7497 62.5409C31.8969 62.2515 31.1328 62.2602 30.7905 62.5628ZM57.7485 62.849C56.6528 64.0159 58.2619 65.8083 59.6907 65.0129C61.1183 64.2178 60.6099 62.3196 58.9691 62.3196C58.5711 62.3196 58.0219 62.5577 57.7485 62.849Z" fill="black"/>
</svg>
