<svg width="81" height="80" viewBox="0 0 81 80" fill="none" xmlns="http://www.w3.org/2000/svg">
<g clip-path="url(#clip0_99_1547)">
<path d="M13.5186 16.5626C18.0922 16.5626 21.7998 12.855 21.7998 8.28137C21.7998 3.70776 18.0922 0.00012207 13.5186 0.00012207C8.94495 0.00012207 5.2373 3.70776 5.2373 8.28137C5.2373 12.855 8.94495 16.5626 13.5186 16.5626Z" fill="black" fill-opacity="0.8"/>
<path d="M54.5663 39.9107C54.5663 36.2904 57.5116 33.345 61.132 33.345C64.7521 33.345 67.6974 36.2904 67.6974 39.9107V43.6572L75.6704 43.2491V29.9377L77.9434 31.3882L80.4651 27.4368L61.132 15.0997L41.7988 27.4368L44.3205 31.3882L46.5935 29.9377V44.7374L54.5665 44.3293L54.5663 39.9107Z" fill="black" fill-opacity="0.8"/>
<path d="M61.132 38.0322C60.0964 38.0322 59.2539 38.8747 59.2539 39.9104V44.0891L63.0098 43.8969V39.9105C63.0098 38.8747 62.1675 38.0322 61.132 38.0322Z" fill="black" fill-opacity="0.8"/>
<path d="M80.4925 47.6954L42.9297 49.6182V55.3979C45.5727 55.8193 48.1958 56.3522 50.7877 56.9989L80.4925 64.4095V47.6954Z" fill="black" fill-opacity="0.8"/>
<path d="M10.2686 60.6756L0.507812 62.6565V80.0002H80.4916V69.2407L49.6521 61.547C36.8339 58.3495 23.2152 58.0481 10.2686 60.6756Z" fill="black" fill-opacity="0.8"/>
<path d="M0.507812 57.8734L4.47625 57.068V51.5865L0.507812 51.7897V57.8734Z" fill="black" fill-opacity="0.8"/>
<path d="M25.6204 49.8203C25.6204 48.7846 24.7779 47.9421 23.7424 47.9421C22.7069 47.9421 21.8643 48.7846 21.8643 49.8203V54.4185C23.1147 54.3375 24.3671 54.2815 25.6204 54.25V49.8203Z" fill="black" fill-opacity="0.8"/>
<path d="M9.16465 56.1168L9.33684 56.0818C11.9281 55.5558 14.545 55.1421 17.1767 54.8388V49.8204C17.1767 46.2001 20.122 43.2547 23.7423 43.2547C27.3626 43.2547 30.3078 46.2001 30.3078 49.8204V54.2469C32.9587 54.311 35.6068 54.4863 38.2417 54.7718V41.0833L40.5146 42.5338L43.0362 38.5824L23.7032 26.2454L9.16465 35.5229L4.37012 38.5824L6.89168 42.5338L9.16465 41.0833V56.1168Z" fill="black" fill-opacity="0.8"/>
</g>
<defs>
<clipPath id="clip0_99_1547">
<rect width="80" height="80" fill="white" transform="translate(0.5)"/>
</clipPath>
</defs>
</svg>
